<?xml version="1.0" encoding="UTF-8" standalone="no"?><!-- Generator: Gravit.io --><svg xmlns="http://www.w3.org/2000/svg" xmlns:xlink="http://www.w3.org/1999/xlink" style="isolation:isolate" viewBox="0 0 4000 1600" width="4000pt" height="1600pt"><defs><clipPath id="_clipPath_wXkKITrcSQ1d9aC5e6GjlYDndsZhVrqh"><rect width="4000" height="1600"/></clipPath></defs><g clip-path="url(#_clipPath_wXkKITrcSQ1d9aC5e6GjlYDndsZhVrqh)"><rect x="0" y="0" width="4000" height="1800" transform="matrix(1,0,0,1,0,0)" fill="rgb(0,34,72)"/><g><rect x="-184.786" y="1508.233" width="4361.805" height="299.534" transform="matrix(0.999,-0.052,0.052,0.999,-84.037,106.741)" fill="rgb(14,111,224)" fill-opacity="0.5"/><rect x="-177.019" y="1508.233" width="4361.805" height="299.534" transform="matrix(0.999,0.052,-0.052,0.999,89.519,-102.603)" fill="rgb(14,111,224)" fill-opacity="0.5"/></g><path d=" M 326.8 688.2 C 326.8 644.047 362.647 608.2 406.8 608.2 C 450.953 608.2 486.8 644.047 486.8 688.2 C 486.8 732.353 450.953 768.2 406.8 768.2 C 362.647 768.2 326.8 732.353 326.8 688.2 Z  M 366.8 688.2 C 366.8 666.123 384.723 648.2 406.8 648.2 C 428.877 648.2 446.8 666.123 446.8 688.2 C 446.8 710.277 428.877 728.2 406.8 728.2 C 384.723 728.2 366.8 710.277 366.8 688.2 Z " fill-rule="evenodd" fill="rgb(235,235,235)"/><path d="M 882.074 770.271 L 882.074 770.271 C 878.466 783.739 864.601 791.743 851.133 788.134 L 745.389 759.8 C 731.921 756.192 723.917 742.327 727.526 728.859 L 727.526 728.859 C 731.134 715.391 744.999 707.387 758.467 710.996 L 864.211 739.33 C 877.679 742.938 885.683 756.803 882.074 770.271 Z" style="stroke:none;fill:#EBEBEB;stroke-miterlimit:10;"/><g><path d="M 714.689 1052.415 L 714.689 1052.415 C 726.763 1059.387 730.906 1074.851 723.935 1086.927 L 669.2 1181.738 C 662.229 1193.813 646.766 1197.957 634.691 1190.985 L 634.691 1190.985 C 622.617 1184.013 618.474 1168.549 625.445 1156.473 L 680.18 1061.662 C 687.151 1049.587 702.614 1045.443 714.689 1052.415 Z" style="stroke:none;fill:#EBEBEB;stroke-miterlimit:10;"/><path d="M 622.06 1169.105 L 622.06 1169.105 C 622.06 1155.161 633.38 1143.84 647.323 1143.84 L 756.797 1143.84 C 770.74 1143.84 782.06 1155.161 782.06 1169.105 L 782.06 1169.105 C 782.06 1183.049 770.74 1194.37 756.797 1194.37 L 647.323 1194.37 C 633.38 1194.37 622.06 1183.049 622.06 1169.105 Z" style="stroke:none;fill:#EBEBEB;stroke-miterlimit:10;"/><path d="M 689.323 1052.415 L 689.323 1052.415 C 701.398 1045.443 716.863 1049.587 723.835 1061.662 L 778.575 1156.473 C 785.547 1168.549 781.403 1184.013 769.327 1190.985 L 769.327 1190.985 C 757.252 1197.957 741.787 1193.813 734.815 1181.738 L 680.075 1086.927 C 673.103 1074.851 677.247 1059.387 689.323 1052.415 Z" style="stroke:none;fill:#EBEBEB;stroke-miterlimit:10;"/></g><g><path d="M 306.097 971.756 L 306.097 971.756 C 319.563 968.147 333.426 976.151 337.034 989.619 L 365.364 1095.363 C 368.973 1108.831 360.969 1122.696 347.503 1126.304 L 347.503 1126.304 C 334.037 1129.913 320.174 1121.909 316.566 1108.441 L 288.236 1002.697 C 284.627 989.229 292.631 975.364 306.097 971.756 Z" style="stroke:none;fill:#EBEBEB;stroke-miterlimit:10;"/><path d="M 404.074 1028.329 L 404.074 1028.329 C 407.683 1041.797 399.679 1055.662 386.211 1059.27 L 280.467 1087.604 C 266.999 1091.213 253.134 1083.209 249.526 1069.741 L 249.526 1069.741 C 245.917 1056.273 253.921 1042.408 267.389 1038.8 L 373.133 1010.466 C 386.601 1006.857 400.466 1014.861 404.074 1028.329 Z" style="stroke:none;fill:#EBEBEB;stroke-miterlimit:10;"/></g><g><path d="M 2958 600 L 3598 600 C 3642.153 600 3678 635.847 3678 680 L 3678 1120 C 3678 1164.153 3642.153 1200 3598 1200 L 2958 1200 C 2913.847 1200 2878 1164.153 2878 1120 L 2878 680 C 2878 635.847 2913.847 600 2958 600 Z" style="stroke:none;fill:#171717;stroke-miterlimit:10;"/><path d=" M 2878 822.475 L 2878 680 L 2878 680 C 2878 635.847 2913.847 600 2958 600 L 3096.593 600 L 2987.297 711.238 L 2878 822.475 Z " fill-rule="evenodd" fill="rgb(14,111,224)"/><path d=" M 3095.503 730.119 L 3159.427 665.059 L 3223.352 600 L 3095.503 600 L 3095.503 730.119 L 3095.503 730.119 L 3095.503 730.119 Z " fill-rule="evenodd" fill="rgb(14,111,224)"/><path d=" M 3223.352 655.619 L 3250.676 627.809 L 3278 600 L 3223.352 600 L 3223.352 655.619 L 3223.352 655.619 L 3223.352 655.619 Z " fill-rule="evenodd" fill="rgb(14,111,224)"/><path d="M 3249.631 698.74 L 3307.369 698.74 C 3324.965 698.74 3339.25 713.025 3339.25 730.62 L 3339.25 730.62 C 3339.25 748.215 3324.965 762.5 3307.369 762.5 L 3249.631 762.5 C 3232.035 762.5 3217.75 748.215 3217.75 730.62 L 3217.75 730.62 C 3217.75 713.025 3232.035 698.74 3249.631 698.74 Z" style="fill:none;stroke:#0E6FE0;stroke-width:15;stroke-linecap:square;stroke-miterlimit:2;"/><circle vector-effect="non-scaling-stroke" cx="3250.504876796714" cy="730.118570982961" r="8.452844186049333" fill="rgb(14,111,224)"/><circle vector-effect="non-scaling-stroke" cx="3304.578619096508" cy="730.118570982961" r="8.452844186049333" fill="rgb(14,111,224)"/><g><rect x="3143" y="815" width="270" height="270" transform="matrix(1,0,0,1,0,0)" fill="rgb(255,0,0)"/><g><g><rect x="3143" y="845" width="270" height="30" transform="matrix(1,0,0,1,0,0)" fill="rgb(23,23,23)"/><rect x="3143" y="905" width="270" height="30" transform="matrix(1,0,0,1,0,0)" fill="rgb(23,23,23)"/><rect x="3143" y="965" width="270" height="30" transform="matrix(1,0,0,1,0,0)" fill="rgb(23,23,23)"/><rect x="3143" y="1025" width="270" height="30" transform="matrix(1,0,0,1,0,0)" fill="rgb(23,23,23)"/></g><g><rect x="3233" y="935" width="270" height="30" transform="matrix(0,1,-1,0,4318,-2418)" fill="rgb(23,23,23)"/><rect x="3173" y="935" width="270" height="30" transform="matrix(0,1,-1,0,4258,-2358)" fill="rgb(23,23,23)"/><rect x="3113" y="935" width="270" height="30" transform="matrix(0,1,-1,0,4198,-2298)" fill="rgb(23,23,23)"/><rect x="3053" y="935" width="270" height="30" transform="matrix(0,1,-1,0,4138,-2238)" fill="rgb(23,23,23)"/></g></g></g><rect x="2937.297" y="850" width="100" height="100" transform="matrix(1,0,0,1,0,0)" fill="rgb(235,235,235)"/><rect x="3518.703" y="850" width="100" height="100" transform="matrix(1,0,0,1,0,0)" fill="rgb(235,235,235)"/><circle vector-effect="non-scaling-stroke" cx="2987.2967055835243" cy="899.9999999999993" r="32.5" fill="rgb(23,23,23)"/><circle vector-effect="non-scaling-stroke" cx="3568.7032944164725" cy="899.9999999999993" r="32.5" fill="rgb(23,23,23)"/></g><g><path d="M 1773.8 610 L 2226.2 610 C 2261.412 610 2290 638.588 2290 673.8 L 2290 1126.2 C 2290 1161.412 2261.412 1190 2226.2 1190 L 1773.8 1190 C 1738.588 1190 1710 1161.412 1710 1126.2 L 1710 673.8 C 1710 638.588 1738.588 610 1773.8 610 Z" style="stroke:none;fill:#FFDD00;stroke-linecap:square;stroke-miterlimit:2;"/><g clip-path="url(#_clipPath_JgJe3nyGjGhlz0fQ9iEOk1qt8g4xdNVB)"><text transform="matrix(1,0,0,1,1958.75,1122)" style="font-family:'Montserrat';font-weight:700;font-size:250px;font-style:normal;fill:#000000;stroke:none;">JS </text><text transform="matrix(1,0,0,1,1888,1426.75)" style="font-family:'Montserrat';font-weight:700;font-size:250px;font-style:normal;fill:#000000;stroke:none;">here</text></g><defs><clipPath id="_clipPath_JgJe3nyGjGhlz0fQ9iEOk1qt8g4xdNVB"><rect x="0" y="0" width="402" height="310" transform="matrix(1,0,0,1,1888,880)"/></clipPath></defs></g><g><path d=" M 1242.913 379.871 L 1572.725 291.498 C 1583.931 288.496 1595.467 295.156 1598.47 306.362 L 1614.28 365.366 C 1617.282 376.572 1610.622 388.107 1599.416 391.11 L 1269.603 479.483 C 1258.397 482.486 1246.862 475.826 1243.859 464.62 L 1228.049 405.616 C 1225.046 394.41 1231.706 382.874 1242.913 379.871 Z " fill-rule="evenodd" fill="rgb(255,171,25)"/><path d=" M 1268.674 441.147 C 1269.474 444.132 1270.931 446.942 1272.855 448.865 L 1291.486 467.496 L 1310.117 486.127 C 1313.964 489.974 1321.354 491.955 1326.61 490.546 L 1352.06 483.727 L 1377.51 476.908 C 1382.766 475.499 1388.176 470.089 1389.584 464.834 L 1396.403 439.384 L 1403.223 413.933 C 1403.927 411.306 1403.784 408.144 1402.984 405.159 L 1268.674 441.147 Z " fill-rule="evenodd" fill="rgb(255,171,25)"/></g><g><path d=" M 1242.056 275.999 L 1215.509 283.112 C 1205.064 285.911 1198.855 296.664 1201.654 307.11 L 1218.203 368.869 C 1221.002 379.315 1231.755 385.523 1242.2 382.724 L 1526.204 306.625 C 1536.65 303.826 1542.858 293.074 1540.059 282.628 L 1523.511 220.869 C 1520.712 210.423 1509.959 204.215 1499.513 207.014 L 1343.462 248.827 L 1337.584 270.766 C 1336.176 276.021 1330.765 281.431 1325.51 282.84 L 1300.06 289.659 L 1274.61 296.478 C 1269.354 297.887 1261.964 295.906 1258.116 292.059 L 1242.056 275.999 Z " fill-rule="evenodd" fill="rgb(166,72,230)"/><path d=" M 1242.649 344.019 C 1243.449 347.004 1244.906 349.813 1246.83 351.737 L 1265.46 370.368 L 1284.091 388.999 C 1287.939 392.846 1295.329 394.826 1300.584 393.418 L 1326.035 386.599 L 1351.485 379.779 C 1356.74 378.371 1362.15 372.961 1363.559 367.705 L 1370.378 342.255 L 1377.197 316.805 C 1377.901 314.177 1377.758 311.016 1376.959 308.03 L 1242.649 344.019 Z " fill-rule="evenodd" fill="rgb(166,72,230)"/></g><path d=" M 2447.301 355.292 L 2422.924 359.438 C 2416.714 360.494 2407.891 364.794 2403.233 369.033 L 2384.945 385.675 C 2380.286 389.915 2375.647 388.315 2374.591 382.106 L 2370.444 357.729 C 2369.388 351.52 2365.089 342.696 2360.849 338.038 L 2344.207 319.75 C 2339.968 315.091 2341.567 310.452 2347.777 309.396 L 2372.153 305.249 C 2378.363 304.193 2387.186 299.894 2391.845 295.655 L 2410.133 279.012 C 2414.791 274.773 2419.431 276.372 2420.487 282.582 L 2424.633 306.959 C 2425.689 313.168 2429.989 321.991 2434.228 326.65 L 2450.87 344.938 C 2455.11 349.596 2453.51 354.236 2447.301 355.292 Z " fill="rgb(255,255,255)"/><path d=" M 2471.422 632.001 L 2450.325 619.105 C 2444.951 615.82 2435.475 613.261 2429.178 613.394 L 2404.456 613.918 C 2398.159 614.051 2395.714 609.796 2398.999 604.422 L 2411.895 583.325 C 2415.18 577.951 2417.739 568.475 2417.606 562.178 L 2417.082 537.456 C 2416.949 531.159 2421.204 528.714 2426.578 531.999 L 2447.675 544.895 C 2453.049 548.18 2462.525 550.739 2468.822 550.606 L 2493.544 550.082 C 2499.841 549.949 2502.286 554.204 2499.001 559.578 L 2486.105 580.675 C 2482.82 586.049 2480.261 595.525 2480.394 601.822 L 2480.918 626.544 C 2481.051 632.841 2476.796 635.286 2471.422 632.001 Z " fill="rgb(255,255,255)"/><path d=" M 2194.769 392.679 L 2173.924 405.979 C 2168.614 409.367 2162.157 416.759 2159.513 422.476 L 2149.137 444.92 C 2146.494 450.638 2141.597 450.968 2138.21 445.658 L 2124.91 424.813 C 2121.522 419.503 2114.13 413.046 2108.413 410.402 L 2085.969 400.026 C 2080.251 397.383 2079.921 392.486 2085.231 389.099 L 2106.076 375.799 C 2111.386 372.411 2117.843 365.019 2120.487 359.302 L 2130.863 336.858 C 2133.506 331.14 2138.403 330.81 2141.79 336.12 L 2155.09 356.965 C 2158.478 362.275 2165.87 368.732 2171.587 371.376 L 2194.031 381.752 C 2199.749 384.395 2200.079 389.292 2194.769 392.679 Z " fill="rgb(255,255,255)"/></g></svg>