<?xml version="1.0" encoding="UTF-8" standalone="no"?><!-- Generator: Gravit.io --><svg xmlns="http://www.w3.org/2000/svg" xmlns:xlink="http://www.w3.org/1999/xlink" style="isolation:isolate" viewBox="0 0 2000 800" width="2000pt" height="800pt"><defs><clipPath id="_clipPath_z2ZufFIOVkV6Nin5ivM9SsuQf3Pr754w"><rect width="2000" height="800"/></clipPath></defs><g clip-path="url(#_clipPath_z2ZufFIOVkV6Nin5ivM9SsuQf3Pr754w)"><rect width="2000" height="800" style="fill:rgb(0,19,114)"/><path d=" M 1000 520 C 933.77 520 880 466.23 880 400 C 880 333.77 933.77 280 1000 280 C 1066.23 280 1120 333.77 1120 400 C 1120 466.23 1066.23 520 1000 520 Z " fill="rgb(41,112,255)"/><g><path d="M 917.493 330 L 991.027 330 C 998.943 330 1005.37 335.975 1005.37 343.335 L 1005.37 343.335 C 1005.37 350.695 998.943 356.67 991.027 356.67 L 917.493 356.67 C 909.577 356.67 903.15 350.695 903.15 343.335 L 903.15 343.335 C 903.15 335.975 909.577 330 917.493 330 Z" style="stroke:none;fill:#00C817;stroke-miterlimit:10;"/><path d="M 909.073 374.44 L 948.707 374.44 C 955.453 374.44 960.93 379.918 960.93 386.665 L 960.93 386.665 C 960.93 393.412 955.453 398.89 948.707 398.89 L 909.073 398.89 C 902.327 398.89 896.85 393.412 896.85 386.665 L 896.85 386.665 C 896.85 379.918 902.327 374.44 909.073 374.44 Z" style="stroke:none;fill:#00C817;stroke-miterlimit:10;"/><path d=" M 920.344 356.667 L 947.011 356.667 C 942.105 356.667 938.122 360.65 938.122 365.556 L 938.122 365.556 C 938.122 370.461 942.105 374.444 947.011 374.444 L 947.011 374.444 L 955.053 374.444 L 947.011 374.444 L 920.344 374.444 C 925.25 374.444 929.233 370.461 929.233 365.556 L 929.233 365.556 C 929.233 360.65 925.25 356.667 920.344 356.667 Z " fill-rule="evenodd" fill="rgb(0,200,23)"/></g><g><path d="M 913.332 493.33 L 1006.668 493.33 C 1013.413 493.33 1018.89 487.854 1018.89 481.11 L 1018.89 481.11 C 1018.89 474.366 1013.413 468.89 1006.668 468.89 L 913.332 468.89 C 906.587 468.89 901.11 474.366 901.11 481.11 L 901.11 481.11 C 901.11 487.854 906.587 493.33 913.332 493.33 Z" style="stroke:none;fill:#00C817;stroke-miterlimit:10;"/><path d="M 952.065 451.11 L 993.545 451.11 C 1002.13 451.11 1009.1 444.14 1009.1 435.555 L 1009.1 435.555 C 1009.1 426.97 1002.13 420 993.545 420 L 952.065 420 C 943.48 420 936.51 426.97 936.51 435.555 L 936.51 435.555 C 936.51 444.14 943.48 451.11 952.065 451.11 Z" style="stroke:none;fill:#00C817;stroke-miterlimit:10;"/><path d=" M 960 468.889 L 986.667 468.889 C 981.761 468.889 977.778 464.906 977.778 460 L 977.778 460 C 977.778 455.094 981.761 451.111 986.667 451.111 L 986.667 451.111 L 994.709 451.111 L 986.667 451.111 L 960 451.111 C 964.906 451.111 968.889 455.094 968.889 460 L 968.889 460 C 968.889 464.906 964.906 468.889 960 468.889 Z " fill-rule="evenodd" fill="rgb(0,200,23)"/></g><path d="M 1079.169 454.44 L 1107.501 454.44 C 1113.019 454.44 1117.5 458.921 1117.5 464.44 L 1117.5 464.44 C 1117.5 469.959 1113.019 474.44 1107.501 474.44 L 1079.169 474.44 C 1073.651 474.44 1069.17 469.959 1069.17 464.44 L 1069.17 464.44 C 1069.17 458.921 1073.651 454.44 1079.169 454.44 Z" style="stroke:none;fill:#00C817;stroke-miterlimit:10;"/><path d="M 884.909 440.43 L 913.241 440.43 C 918.759 440.43 923.24 444.911 923.24 450.43 L 923.24 450.43 C 923.24 455.949 918.759 460.43 913.241 460.43 L 884.909 460.43 C 879.391 460.43 874.91 455.949 874.91 450.43 L 874.91 450.43 C 874.91 444.911 879.391 440.43 884.909 440.43 Z" style="stroke:none;fill:#00C817;stroke-miterlimit:10;"/><g><path d="M 1008.788 433.89 L 1074.592 433.89 C 1079.337 433.89 1083.19 437.463 1083.19 441.865 L 1083.19 441.865 C 1083.19 446.267 1079.337 449.84 1074.592 449.84 L 1008.788 449.84 C 1004.043 449.84 1000.19 446.267 1000.19 441.865 L 1000.19 441.865 C 1000.19 437.463 1004.043 433.89 1008.788 433.89 Z" style="stroke:none;fill:#FFFFFF;stroke-miterlimit:10;"/><path d="M 999.8 406.84 L 1039.66 406.84 C 1043.766 406.84 1047.1 410.174 1047.1 414.28 L 1047.1 414.28 C 1047.1 418.386 1043.766 421.72 1039.66 421.72 L 999.8 421.72 C 995.694 421.72 992.36 418.386 992.36 414.28 L 992.36 414.28 C 992.36 410.174 995.694 406.84 999.8 406.84 Z" style="stroke:none;fill:#FFFFFF;stroke-miterlimit:10;"/><path d=" M 1017.92 421.72 L 1036.182 421.72 C 1032.822 421.72 1030.095 424.448 1030.095 427.808 L 1030.095 427.808 C 1030.095 431.167 1032.822 433.895 1036.182 433.895 L 1036.182 433.895 L 1041.69 433.895 L 1036.182 433.895 L 1017.92 433.895 C 1021.28 433.895 1024.007 431.167 1024.007 427.808 L 1024.007 427.808 C 1024.007 424.448 1021.28 421.72 1017.92 421.72 Z " fill-rule="evenodd" fill="rgb(255,255,255)"/><path d=" M 1050.556 449.837 L 1068.818 449.837 C 1065.458 449.837 1062.73 452.564 1062.73 455.924 L 1062.73 455.924 C 1062.73 459.284 1065.458 462.011 1068.818 462.011 L 1068.818 462.011 L 1074.325 462.011 L 1068.818 462.011 L 1050.556 462.011 C 1053.915 462.011 1056.643 459.284 1056.643 455.924 L 1056.643 455.924 C 1056.643 452.564 1053.915 449.837 1050.556 449.837 Z " fill-rule="evenodd" fill="rgb(255,255,255)"/><path d="M 1050.965 462.2 L 1073.915 462.2 C 1079.034 462.2 1083.19 466.356 1083.19 471.475 L 1083.19 471.475 C 1083.19 476.594 1079.034 480.75 1073.915 480.75 L 1050.965 480.75 C 1045.846 480.75 1041.69 476.594 1041.69 471.475 L 1041.69 471.475 C 1041.69 466.356 1045.846 462.2 1050.965 462.2 Z" style="stroke:none;fill:#FFFFFF;stroke-miterlimit:10;"/></g><path d="M 1046.111 343.33 L 1123.889 343.33 C 1135.54 343.33 1145 352.791 1145 364.445 L 1145 364.445 C 1145 376.099 1135.54 385.56 1123.889 385.56 L 1046.111 385.56 C 1034.46 385.56 1025 376.099 1025 364.445 L 1025 364.445 C 1025 352.791 1034.46 343.33 1046.111 343.33 Z" style="stroke:none;fill:#00C817;stroke-miterlimit:10;"/><g><path d="M 1050.546 343.72 L 1115.834 343.72 C 1121.246 343.72 1125.64 348.113 1125.64 353.525 L 1125.64 353.525 C 1125.64 358.937 1121.246 363.33 1115.834 363.33 L 1050.546 363.33 C 1045.134 363.33 1040.74 358.937 1040.74 353.525 L 1040.74 353.525 C 1040.74 348.113 1045.134 343.72 1050.546 343.72 Z" style="stroke:none;fill:#FFFFFF;stroke-miterlimit:10;"/><path d="M 1053.807 318.89 L 1081.393 318.89 C 1084.979 318.89 1087.89 321.8 1087.89 325.385 L 1087.89 325.385 C 1087.89 328.97 1084.979 331.88 1081.393 331.88 L 1053.807 331.88 C 1050.221 331.88 1047.31 328.97 1047.31 325.385 L 1047.31 325.385 C 1047.31 321.8 1050.221 318.89 1053.807 318.89 Z" style="stroke:none;fill:#FFFFFF;stroke-miterlimit:10;"/><path d=" M 1058.47 331.545 L 1076.732 331.545 C 1073.372 331.545 1070.645 334.272 1070.645 337.632 L 1070.645 337.632 C 1070.645 340.992 1073.372 343.72 1076.732 343.72 L 1076.732 343.72 L 1082.24 343.72 L 1076.732 343.72 L 1058.47 343.72 C 1061.829 343.72 1064.557 340.992 1064.557 337.632 L 1064.557 337.632 C 1064.557 334.272 1061.829 331.545 1058.47 331.545 Z " fill-rule="evenodd" fill="rgb(255,255,255)"/></g><g><path d="M 961.583 389.71 L 873.977 389.71 C 866.572 389.71 860.56 395.721 860.56 403.125 L 860.56 403.125 C 860.56 410.529 866.572 416.54 873.977 416.54 L 961.583 416.54 C 968.988 416.54 975 410.529 975 403.125 L 975 403.125 C 975 395.721 968.988 389.71 961.583 389.71 Z" style="stroke:none;fill:#FFFFFF;stroke-miterlimit:10;"/><path d="M 948.721 429.96 L 917.419 429.96 C 910.94 429.96 905.68 435.221 905.68 441.7 L 905.68 441.7 C 905.68 448.179 910.94 453.44 917.419 453.44 L 948.721 453.44 C 955.2 453.44 960.46 448.179 960.46 441.7 L 960.46 441.7 C 960.46 435.221 955.2 429.96 948.721 429.96 Z" style="stroke:none;fill:#FFFFFF;stroke-miterlimit:10;"/><path d=" M 942.735 416.545 L 922.609 416.545 C 926.312 416.545 929.318 419.551 929.318 423.253 L 929.318 423.253 C 929.318 426.956 926.312 429.962 922.609 429.962 L 922.609 429.962 L 916.539 429.962 L 922.609 429.962 L 942.735 429.962 C 939.032 429.962 936.026 426.956 936.026 423.253 L 936.026 423.253 C 936.026 419.551 939.032 416.545 942.735 416.545 Z " fill-rule="evenodd" fill="rgb(255,255,255)"/></g><path d="M 1081.587 396.53 L 1131.753 396.53 C 1139.269 396.53 1145.37 402.631 1145.37 410.145 L 1145.37 410.145 C 1145.37 417.659 1139.269 423.76 1131.753 423.76 L 1081.587 423.76 C 1074.071 423.76 1067.97 417.659 1067.97 410.145 L 1067.97 410.145 C 1067.97 402.631 1074.071 396.53 1081.587 396.53 Z" style="stroke:none;fill:#00C817;stroke-miterlimit:10;"/><path d="M 916.814 298.74 L 958.746 298.74 C 964.344 298.74 968.89 303.286 968.89 308.885 L 968.89 308.885 C 968.89 314.484 964.344 319.03 958.746 319.03 L 916.814 319.03 C 911.216 319.03 906.67 314.484 906.67 308.885 L 906.67 308.885 C 906.67 303.286 911.216 298.74 916.814 298.74 Z" style="stroke:none;fill:#00C817;stroke-miterlimit:10;"/><path d="M 997.779 299.03 L 1024.441 299.03 C 1029.96 299.03 1034.44 303.511 1034.44 309.03 L 1034.44 309.03 C 1034.44 314.549 1029.96 319.03 1024.441 319.03 L 997.779 319.03 C 992.26 319.03 987.78 314.549 987.78 309.03 L 987.78 309.03 C 987.78 303.511 992.26 299.03 997.779 299.03 Z" style="stroke:none;fill:#FFFFFF;stroke-miterlimit:10;"/><path d="M 974.441 344.44 L 1001.109 344.44 C 1006.629 344.44 1011.11 348.921 1011.11 354.44 L 1011.11 354.44 C 1011.11 359.959 1006.629 364.44 1001.109 364.44 L 974.441 364.44 C 968.921 364.44 964.44 359.959 964.44 354.44 L 964.44 354.44 C 964.44 348.921 968.921 344.44 974.441 344.44 Z" style="stroke:none;fill:#FFFFFF;stroke-miterlimit:10;"/><path d="M 985.001 480 L 1020.559 480 C 1026.079 480 1030.56 484.481 1030.56 490 L 1030.56 490 C 1030.56 495.519 1026.079 500 1020.559 500 L 985.001 500 C 979.481 500 975 495.519 975 490 L 975 490 C 975 484.481 979.481 480 985.001 480 Z" style="stroke:none;fill:#FFFFFF;stroke-miterlimit:10;"/><path d="M 916.666 336.67 L 932.224 336.67 C 935.29 336.67 937.78 339.159 937.78 342.225 L 937.78 342.225 C 937.78 345.291 935.29 347.78 932.224 347.78 L 916.666 347.78 C 913.6 347.78 911.11 345.291 911.11 342.225 L 911.11 342.225 C 911.11 339.159 913.6 336.67 916.666 336.67 Z" style="stroke:none;fill:#FFFFFF;stroke-miterlimit:10;"/><path d="M 1059.857 394.31 L 1076.523 394.31 C 1080.203 394.31 1083.19 397.296 1083.19 400.975 L 1083.19 400.975 C 1083.19 404.654 1080.203 407.64 1076.523 407.64 L 1059.857 407.64 C 1056.177 407.64 1053.19 404.654 1053.19 400.975 L 1053.19 400.975 C 1053.19 397.296 1056.177 394.31 1059.857 394.31 Z" style="stroke:none;fill:#FFFFFF;stroke-miterlimit:10;"/><path d=" M 1000 280 C 1066.23 280 1120 333.77 1120 400 C 1120 466.23 1066.23 520 1000 520 L 1000 400 L 1000 280 Z " fill="rgb(0,0,0)" fill-opacity="0.2"/><path d=" M 466.667 0 L 1533.333 0 L 1533.333 800 L 466.667 800 L 466.667 0 Z  M 1000 520 C 933.77 520 880 466.23 880 400 C 880 333.77 933.77 280 1000 280 C 1066.23 280 1120 333.77 1120 400 C 1120 466.23 1066.23 520 1000 520 Z " fill-rule="evenodd" fill="rgb(0,19,114)"/><path d=" M 327.327 182.242 L 326.664 182.508 C 323.128 183.925 319.207 187.986 317.913 191.569 L 317.67 192.241 C 316.377 195.825 314.176 195.863 312.758 192.327 L 312.492 191.664 C 311.075 188.128 307.014 184.207 303.431 182.913 L 302.759 182.67 C 299.175 181.377 299.137 179.176 302.673 177.758 L 303.336 177.492 C 306.872 176.075 310.793 172.014 312.087 168.431 L 312.33 167.759 C 313.623 164.175 315.824 164.137 317.242 167.673 L 317.508 168.336 C 318.925 171.872 322.986 175.793 326.569 177.087 L 327.241 177.33 C 330.825 178.623 330.863 180.824 327.327 182.242 Z " fill="rgb(255,255,255)"/><path d=" M 763.327 291.242 L 762.664 291.508 C 759.128 292.925 755.207 296.986 753.913 300.569 L 753.67 301.241 C 752.377 304.825 750.176 304.863 748.758 301.327 L 748.492 300.664 C 747.075 297.128 743.014 293.207 739.431 291.913 L 738.759 291.67 C 735.175 290.377 735.137 288.176 738.673 286.758 L 739.336 286.492 C 742.872 285.075 746.793 281.014 748.087 277.431 L 748.33 276.759 C 749.623 273.175 751.824 273.137 753.242 276.673 L 753.508 277.336 C 754.925 280.872 758.986 284.793 762.569 286.087 L 763.241 286.33 C 766.825 287.623 766.863 289.824 763.327 291.242 Z " fill="rgb(255,255,255)"/><path d=" M 1211.327 604.242 L 1210.664 604.508 C 1207.128 605.925 1203.207 609.986 1201.913 613.569 L 1201.67 614.241 C 1200.377 617.825 1198.176 617.863 1196.758 614.327 L 1196.492 613.664 C 1195.075 610.128 1191.014 606.207 1187.431 604.913 L 1186.759 604.67 C 1183.175 603.377 1183.137 601.176 1186.673 599.758 L 1187.336 599.492 C 1190.872 598.075 1194.793 594.014 1196.087 590.431 L 1196.33 589.759 C 1197.623 586.175 1199.824 586.137 1201.242 589.673 L 1201.508 590.336 C 1202.925 593.872 1206.986 597.793 1210.569 599.087 L 1211.241 599.33 C 1214.825 600.623 1214.863 602.824 1211.327 604.242 Z " fill="rgb(255,255,255)"/><path d=" M 1271.327 115.242 L 1270.664 115.508 C 1267.128 116.925 1263.207 120.986 1261.913 124.569 L 1261.67 125.241 C 1260.377 128.825 1258.176 128.863 1256.758 125.327 L 1256.492 124.664 C 1255.075 121.128 1251.014 117.207 1247.431 115.913 L 1246.759 115.67 C 1243.175 114.377 1243.137 112.176 1246.673 110.758 L 1247.336 110.492 C 1250.872 109.075 1254.793 105.014 1256.087 101.431 L 1256.33 100.759 C 1257.623 97.175 1259.824 97.137 1261.242 100.673 L 1261.508 101.336 C 1262.925 104.872 1266.986 108.793 1270.569 110.087 L 1271.241 110.33 C 1274.825 111.623 1274.863 113.824 1271.327 115.242 Z " fill="rgb(255,255,255)"/><path d=" M 1581.327 502.242 L 1580.664 502.508 C 1577.128 503.925 1573.207 507.986 1571.913 511.569 L 1571.67 512.241 C 1570.377 515.825 1568.176 515.863 1566.758 512.327 L 1566.492 511.664 C 1565.075 508.128 1561.014 504.207 1557.431 502.913 L 1556.759 502.67 C 1553.175 501.377 1553.137 499.176 1556.673 497.758 L 1557.336 497.492 C 1560.872 496.075 1564.793 492.014 1566.087 488.431 L 1566.33 487.759 C 1567.623 484.175 1569.824 484.137 1571.242 487.673 L 1571.508 488.336 C 1572.925 491.872 1576.986 495.793 1580.569 497.087 L 1581.241 497.33 C 1584.825 498.623 1584.863 500.824 1581.327 502.242 Z " fill="rgb(255,255,255)"/><path d=" M 434.327 522.242 L 433.664 522.508 C 430.128 523.925 426.207 527.986 424.913 531.569 L 424.67 532.241 C 423.377 535.825 421.176 535.863 419.758 532.327 L 419.492 531.664 C 418.075 528.128 414.014 524.207 410.431 522.913 L 409.759 522.67 C 406.175 521.377 406.137 519.176 409.673 517.758 L 410.336 517.492 C 413.872 516.075 417.793 512.014 419.087 508.431 L 419.33 507.759 C 420.623 504.175 422.824 504.137 424.242 507.673 L 424.508 508.336 C 425.925 511.872 429.986 515.793 433.569 517.087 L 434.241 517.33 C 437.825 518.623 437.863 520.824 434.327 522.242 Z " fill="rgb(255,255,255)"/></g></svg>