<?xml version="1.0" encoding="UTF-8" standalone="no"?><!-- Generator: Gravit.io --><svg xmlns="http://www.w3.org/2000/svg" xmlns:xlink="http://www.w3.org/1999/xlink" style="isolation:isolate" viewBox="0 0 2000 800" width="2000pt" height="800pt"><defs><clipPath id="_clipPath_vEa32H6zgrxAhCoEljDDT43JbVAH3u0i"><rect width="2000" height="800"/></clipPath></defs><g clip-path="url(#_clipPath_vEa32H6zgrxAhCoEljDDT43JbVAH3u0i)"><g><g><path d=" M 1361.695 350.42 C 1362.797 350.17 1363.91 349.893 1365.029 349.594 C 1384.947 344.257 1399.398 333.508 1397.281 325.606 C 1395.164 317.704 1377.274 315.621 1357.356 320.958 C 1356.237 321.258 1355.135 321.575 1354.055 321.909 L 1361.695 350.42 L 1361.695 350.42 Z " fill="rgb(0,102,255)"/><path d="M 1354.207 321.8 L 1361.88 350.438 L 1308.503 364.742 C 1300.6 366.86 1292.465 362.163 1290.348 354.26 L 1290.348 354.26 C 1288.23 346.357 1292.927 338.221 1300.83 336.104 L 1354.207 321.8 Z" style="stroke:none;fill:#747474;stroke-miterlimit:10;"/></g><g><path d=" M 1379.449 414.963 C 1380.552 414.712 1381.664 414.436 1382.783 414.136 C 1402.701 408.799 1417.153 398.051 1415.035 390.149 C 1412.918 382.247 1395.028 380.164 1375.11 385.501 C 1373.991 385.801 1372.89 386.118 1371.81 386.452 L 1379.449 414.963 L 1379.449 414.963 Z " fill="rgb(0,102,255)"/><path d="M 1371.957 386.35 L 1379.63 414.982 L 1326.253 429.282 C 1318.35 431.399 1310.215 426.703 1308.098 418.802 L 1308.098 418.802 C 1305.98 410.901 1310.677 402.767 1318.58 400.65 L 1371.957 386.35 Z" style="stroke:none;fill:#747474;stroke-miterlimit:10;"/></g><path d=" M 1401.815 390.598 C 1363.88 399.308 1331.05 394.656 1326.962 379.399 C 1322.874 364.142 1348.979 343.698 1386.187 332.274 L 1401.815 390.598 L 1401.815 390.598 Z " fill="rgb(244,244,244)"/><path d=" M 1401.815 390.598 C 1404.07 390.085 1406.346 389.52 1408.634 388.906 C 1449.379 377.989 1478.942 356.001 1474.611 339.836 C 1470.28 323.672 1433.683 319.411 1392.939 330.329 C 1390.65 330.942 1388.396 331.59 1386.187 332.274 L 1401.815 390.598 L 1401.815 390.598 Z " fill="rgb(255,255,255)"/><g><path d=" M 1360.825 385.353 C 1361.927 385.102 1363.04 384.826 1364.159 384.526 C 1384.077 379.189 1398.528 368.441 1396.411 360.538 C 1394.294 352.636 1376.404 350.554 1356.486 355.891 C 1355.367 356.191 1354.265 356.507 1353.185 356.842 L 1360.825 385.353 L 1360.825 385.353 Z " fill="rgb(0,102,255)"/><path d="M 1353.337 356.74 L 1361.01 385.372 L 1307.633 399.672 C 1299.73 401.789 1291.595 397.093 1289.478 389.192 L 1289.478 389.192 C 1287.36 381.291 1292.057 373.157 1299.96 371.04 L 1353.337 356.74 Z" style="stroke:none;fill:#747474;stroke-miterlimit:10;"/></g><path d=" M 1421.168 338.559 C 1429.2 336.407 1437.468 341.181 1439.62 349.212 C 1441.772 357.244 1436.999 365.512 1428.967 367.664 C 1420.935 369.816 1412.667 365.043 1410.515 357.011 C 1408.363 348.979 1413.137 340.711 1421.168 338.559 Z " fill="rgb(57,157,251)"/></g></g></svg>