<?xml version="1.0" encoding="UTF-8" standalone="no"?><!-- Generator: Gravit.io --><svg xmlns="http://www.w3.org/2000/svg" xmlns:xlink="http://www.w3.org/1999/xlink" style="isolation:isolate" viewBox="0 0 200 200" width="200pt" height="200pt"><defs><clipPath id="_clipPath_szQKuKw8PuSsZrcxVOgXu6ly3d7CVNc4"><rect width="200" height="200"/></clipPath></defs><g clip-path="url(#_clipPath_szQKuKw8PuSsZrcxVOgXu6ly3d7CVNc4)"><path d="M 162 0 L 38 0 C 17.027 0 0 17.027 0 38 L 0 162 C 0 182.973 17.027 200 38 200 L 162 200 C 182.973 200 200 182.973 200 162 L 200 38 C 200 17.027 182.973 0 162 0 Z" style="stroke:none;fill:#0064FF;stroke-miterlimit:10;"/><path d="M 133 76 L 35 76 C 21.754 76 11 86.754 11 100 L 11 100 C 11 113.246 21.754 124 35 124 L 133 124 C 146.246 124 157 113.246 157 100 L 157 100 C 157 86.754 146.246 76 133 76 Z" style="stroke:none;fill:#000000;stroke-miterlimit:10;"/><circle vector-effect="non-scaling-stroke" cx="48.00000000000015" cy="100.00000000000078" r="8.999999999999993" fill="rgb(235,235,235)"/><circle vector-effect="non-scaling-stroke" cx="103.99999999999883" cy="100.00000000000074" r="9" fill="rgb(235,235,235)"/><rect x="91.5" y="87" width="25" height="9.5" transform="matrix(0.966,-0.259,0.259,0.966,-20.203,30.043)" fill="rgb(0,0,0)"/><rect x="35.5" y="87" width="25" height="9.5" transform="matrix(0.966,0.259,-0.259,0.966,25.382,-9.297)" fill="rgb(0,0,0)"/></g></svg>