<?xml version="1.0" encoding="UTF-8" standalone="no"?><!-- Generator: Gravit.io --><svg xmlns="http://www.w3.org/2000/svg" xmlns:xlink="http://www.w3.org/1999/xlink" style="isolation:isolate" viewBox="0 0 100 100" width="100pt" height="100pt"><defs><clipPath id="_clipPath_GQBkkUspiOd9FLgH6a0MFjRu03m15e9Q"><rect width="100" height="100"/></clipPath></defs><g clip-path="url(#_clipPath_GQBkkUspiOd9FLgH6a0MFjRu03m15e9Q)"><path d="M 46.466 81.537 L 18.183 53.254 C 16.232 51.303 16.232 48.135 18.183 46.183 L 18.183 46.183 C 20.135 44.232 23.303 44.232 25.254 46.183 L 53.537 74.466 C 55.488 76.417 55.488 79.585 53.537 81.537 L 53.537 81.537 C 51.585 83.488 48.417 83.488 46.466 81.537 Z" style="stroke:none;fill:#FFFFFF;stroke-miterlimit:10;"/><path d="M 81.817 53.254 L 53.534 81.537 C 51.583 83.488 48.415 83.488 46.463 81.537 L 46.463 81.537 C 44.512 79.585 44.512 76.417 46.463 74.466 L 74.746 46.183 C 76.697 44.232 79.865 44.232 81.817 46.183 L 81.817 46.183 C 83.768 48.135 83.768 51.303 81.817 53.254 Z" style="stroke:none;fill:#FFFFFF;stroke-miterlimit:10;"/></g></svg>