<?xml version="1.0" encoding="UTF-8" standalone="no"?><!-- Generator: Gravit.io --><svg xmlns="http://www.w3.org/2000/svg" xmlns:xlink="http://www.w3.org/1999/xlink" style="isolation:isolate" viewBox="0 0 960 720" width="960pt" height="720pt"><defs><clipPath id="_clipPath_iLalZ5J5bdkncQIbNjg0liD9hNCsHMKx"><rect width="960" height="720"/></clipPath></defs><g clip-path="url(#_clipPath_iLalZ5J5bdkncQIbNjg0liD9hNCsHMKx)"><linearGradient id="_lgradient_0" x1="0.5" y1="1" x2="0.49999999999999983" y2="0"><stop offset="0.8333333333333334%" style="stop-color:#2A66C1"/><stop offset="100%" style="stop-color:#2D004A"/></linearGradient><rect width="960" height="720" style="fill:url(#_lgradient_0);"/><circle vector-effect="non-scaling-stroke" cx="480.0000000000002" cy="208.875" r="73.5" fill="rgb(255,255,255)"/><circle vector-effect="non-scaling-stroke" cx="480.0000000000002" cy="208.875" r="95" fill="rgb(255,255,255)" fill-opacity="0.5"/><path d=" M 0 360 Q 45 361 117.998 360 C 162 362 198.375 371 256 417 C 313.625 463 303.89 513.479 424 514 C 544.11 514.521 423.89 514.301 544 514 C 664.11 513.699 675.589 450.986 713 417 C 750.411 383.014 784 362 844 360 C 891.333 360 890.667 360 960 360 L 960 720 L 0 720 L 0 360 Z " fill="rgb(0,121,73)"/><path d=" M 0 534 Q 64.968 617.202 115.903 617.255 C 173.928 617.316 218.294 617.23 249 617 C 279.706 616.77 303.89 550.479 424 551 C 544.11 551.521 352.384 552.137 544 551 C 735.616 549.863 654.345 552.836 773.414 551 C 886.027 549.041 890.667 470 960 470 L 960 720 L 0 720 L 0 534 Z " fill="rgb(0,94,56)"/><path d=" M 0 595 Q 156.986 554.795 339 580 Q 442.192 589.315 737.656 720 L 0 720 L 0 595 Z " fill="rgb(1,79,47)"/><path d=" M 122.545 348.642 L 122.545 371.358 C 122.545 375.024 119.569 378 115.903 378 L 115.903 378 C 112.237 378 109.26 375.024 109.26 371.358 L 109.26 348.642 L 109.26 348.642 L 92.428 348.642 C 88.558 348.642 86.987 345.921 88.922 342.57 L 100.659 322.24 L 101.459 320.856 L 95.444 320.856 C 92.071 320.856 90.702 318.484 92.389 315.563 L 102.618 297.846 L 112.847 280.128 C 114.533 277.207 117.272 277.207 118.958 280.128 L 129.187 297.846 L 139.417 315.563 C 141.103 318.484 139.734 320.856 136.361 320.856 L 136.361 320.856 L 130.347 320.856 L 131.146 322.24 L 142.883 342.57 C 144.818 345.921 143.247 348.642 139.377 348.642 L 122.545 348.642 Z " fill-rule="evenodd" fill="rgb(0,121,73)"/><path d=" M 413.142 490.673 L 413.142 513.389 C 413.142 517.055 410.166 520.031 406.5 520.031 L 406.5 520.031 C 402.834 520.031 399.858 517.055 399.858 513.389 L 399.858 490.673 L 399.858 490.673 L 383.025 490.673 C 379.155 490.673 377.584 487.952 379.519 484.601 L 391.257 464.271 L 392.056 462.887 L 386.042 462.887 C 382.669 462.887 381.3 460.515 382.986 457.595 L 393.215 439.877 L 403.445 422.159 C 405.131 419.239 407.869 419.239 409.555 422.159 L 419.785 439.877 L 430.014 457.595 C 431.7 460.515 430.331 462.887 426.958 462.887 L 426.958 462.887 L 420.944 462.887 L 421.743 464.271 L 433.481 484.601 C 435.416 487.952 433.845 490.673 429.975 490.673 L 413.142 490.673 Z " fill-rule="evenodd" fill="rgb(0,121,73)"/><path d=" M -5.82 524.851 L -5.82 555.013 C -5.82 559.881 -1.868 563.833 3 563.833 L 3 563.833 C 7.868 563.833 11.82 559.881 11.82 555.013 L 11.82 524.851 L 11.82 524.851 L 34.17 524.851 C 39.309 524.851 41.395 521.238 38.825 516.788 L 23.24 489.794 L 22.179 487.956 L 30.165 487.956 C 34.643 487.956 36.461 484.807 34.222 480.929 L 20.64 457.403 L 7.057 433.878 C 4.818 429.999 1.182 429.999 -1.057 433.878 L -14.64 457.403 L -28.222 480.929 C -30.461 484.807 -28.643 487.956 -24.165 487.956 L -24.165 487.956 L -16.179 487.956 L -17.24 489.794 L -32.825 516.788 C -35.395 521.238 -33.309 524.851 -28.17 524.851 L -5.82 524.851 Z " fill-rule="evenodd" fill="rgb(0,94,56)"/><path d=" M 177.053 545.467 L 177.053 585.786 C 177.053 592.293 171.77 597.576 165.263 597.576 L 165.263 597.576 C 158.756 597.576 153.473 592.293 153.473 585.786 L 153.473 545.467 L 153.473 545.467 L 123.596 545.467 C 116.727 545.467 113.938 540.637 117.373 534.688 L 138.206 498.604 L 139.625 496.147 L 128.949 496.147 C 122.963 496.147 120.533 491.938 123.526 486.753 L 141.683 455.305 L 159.839 423.857 C 162.832 418.673 167.693 418.673 170.686 423.857 L 188.843 455.305 L 206.999 486.753 C 209.992 491.938 207.562 496.147 201.576 496.147 L 201.576 496.147 L 190.9 496.147 L 192.319 498.604 L 213.152 534.688 C 216.587 540.637 213.799 545.467 206.929 545.467 L 177.053 545.467 Z " fill-rule="evenodd" fill="rgb(1,79,47)"/><path d=" M 752.247 371.315 L 752.247 394.031 C 752.247 397.697 749.271 400.673 745.605 400.673 L 745.605 400.673 C 741.939 400.673 738.962 397.697 738.962 394.031 L 738.962 371.315 L 738.962 371.315 L 722.13 371.315 C 718.26 371.315 716.689 368.594 718.624 365.243 L 730.361 344.913 L 731.16 343.529 L 725.146 343.529 C 721.773 343.529 720.404 341.157 722.091 338.237 L 732.32 320.519 L 742.549 302.801 C 744.235 299.881 746.974 299.881 748.66 302.801 L 758.889 320.519 L 769.119 338.237 C 770.805 341.157 769.436 343.529 766.063 343.529 L 766.063 343.529 L 760.049 343.529 L 760.848 344.913 L 772.585 365.243 C 774.52 368.594 772.949 371.315 769.079 371.315 L 752.247 371.315 Z " fill-rule="evenodd" fill="rgb(0,121,73)"/><path d=" M 857.451 341.642 L 857.451 364.358 C 857.451 368.024 854.475 371 850.809 371 L 850.809 371 C 847.143 371 844.167 368.024 844.167 364.358 L 844.167 341.642 L 844.167 341.642 L 827.334 341.642 C 823.464 341.642 821.893 338.921 823.828 335.57 L 835.566 315.24 L 836.365 313.856 L 830.351 313.856 C 826.978 313.856 825.609 311.484 827.295 308.563 L 837.524 290.846 L 847.753 273.128 C 849.44 270.207 852.178 270.207 853.864 273.128 L 864.094 290.846 L 874.323 308.563 C 876.009 311.484 874.64 313.856 871.267 313.856 L 871.267 313.856 L 865.253 313.856 L 866.052 315.24 L 877.79 335.57 C 879.725 338.921 878.154 341.642 874.284 341.642 L 857.451 341.642 Z " fill-rule="evenodd" fill="rgb(0,121,73)"/><path d=" M 485.746 493.943 L 485.746 514.285 C 485.746 517.457 483.171 520.031 480 520.031 L 480 520.031 C 476.829 520.031 474.254 517.457 474.254 514.285 L 474.254 493.943 C 463.748 491.364 455.944 481.876 455.944 470.579 L 455.944 444.025 C 455.944 430.748 466.723 419.969 480 419.969 L 480 419.969 C 493.277 419.969 504.056 430.748 504.056 444.025 L 504.056 470.579 C 504.056 481.876 496.252 491.364 485.746 493.943 Z " fill-rule="evenodd" fill="rgb(0,121,73)"/><path d=" M 647.252 472.648 L 647.252 492.99 C 647.252 496.161 644.677 498.736 641.506 498.736 L 641.506 498.736 C 638.335 498.736 635.76 496.161 635.76 492.99 L 635.76 472.648 C 625.254 470.069 617.45 460.58 617.45 449.283 L 617.45 422.73 C 617.45 409.453 628.229 398.673 641.506 398.673 L 641.506 398.673 C 654.783 398.673 665.563 409.453 665.563 422.73 L 665.563 449.283 C 665.563 460.58 657.759 470.069 647.252 472.648 Z " fill-rule="evenodd" fill="rgb(0,121,73)"/><path d=" M 811.09 528.282 L 811.09 556.308 C 811.09 560.678 807.542 564.225 803.173 564.225 L 803.173 564.225 C 798.804 564.225 795.256 560.678 795.256 556.308 L 795.256 528.282 C 780.781 524.728 770.029 511.655 770.029 496.09 L 770.029 459.505 C 770.029 441.213 784.88 426.361 803.173 426.361 L 803.173 426.361 C 821.466 426.361 836.317 441.213 836.317 459.505 L 836.317 496.09 C 836.317 511.655 825.565 524.728 811.09 528.282 Z " fill-rule="evenodd" fill="rgb(0,94,56)"/><path d=" M 226.69 374.585 L 226.69 394.927 C 226.69 398.099 224.115 400.673 220.944 400.673 L 220.944 400.673 C 217.772 400.673 215.198 398.099 215.198 394.927 L 215.198 374.585 C 204.691 372.006 196.887 362.518 196.887 351.221 L 196.887 351.178 C 196.887 337.901 207.667 327.121 220.944 327.121 L 220.944 327.121 C 234.221 327.121 245 337.901 245 351.178 L 245 351.221 C 245 362.518 237.196 372.006 226.69 374.585 Z " fill-rule="evenodd" fill="rgb(0,121,73)"/><path d=" M 640.335 528.282 L 640.335 556.308 C 640.335 560.678 636.787 564.225 632.418 564.225 L 632.418 564.225 C 628.049 564.225 624.501 560.678 624.501 556.308 L 624.501 528.282 C 610.026 524.728 599.274 511.655 599.274 496.09 L 599.274 496.031 C 599.274 477.738 614.125 462.887 632.418 462.887 L 632.418 462.887 C 650.711 462.887 665.563 477.738 665.563 496.031 L 665.563 496.09 C 665.563 511.655 654.81 524.728 640.335 528.282 Z " fill-rule="evenodd" fill="rgb(0,94,56)"/><path d=" M 725.712 528.282 L 725.712 556.308 C 725.712 560.678 722.165 564.225 717.796 564.225 L 717.796 564.225 C 713.426 564.225 709.879 560.678 709.879 556.308 L 709.879 528.282 C 695.403 524.728 684.651 511.655 684.651 496.09 L 684.651 496.031 C 684.651 477.738 699.503 462.887 717.796 462.887 L 717.796 462.887 C 736.088 462.887 750.94 477.738 750.94 496.031 L 750.94 496.09 C 750.94 511.655 740.188 524.728 725.712 528.282 Z " fill-rule="evenodd" fill="rgb(0,94,56)"/><path d=" M 268.802 407.464 L 268.802 427.806 C 268.802 430.977 266.228 433.552 263.056 433.552 L 263.056 433.552 C 259.885 433.552 257.31 430.977 257.31 427.806 L 257.31 407.464 C 246.804 404.885 239 395.396 239 384.099 L 239 384.056 C 239 370.779 249.779 360 263.056 360 L 263.056 360 C 276.333 360 287.113 370.779 287.113 384.056 L 287.113 384.099 C 287.113 395.396 279.309 404.885 268.802 407.464 Z " fill-rule="evenodd" fill="rgb(0,121,73)"/><path d=" M 555.493 493.943 L 555.493 514.285 C 555.493 517.457 552.919 520.031 549.747 520.031 L 549.747 520.031 C 546.576 520.031 544.001 517.457 544.001 514.285 L 544.001 493.943 C 533.495 491.364 525.691 481.876 525.691 470.579 L 525.691 470.536 C 525.691 457.259 536.47 446.479 549.747 446.479 L 549.747 446.479 C 563.024 446.479 573.804 457.259 573.804 470.536 L 573.804 470.579 C 573.804 481.876 566 491.364 555.493 493.943 Z " fill-rule="evenodd" fill="rgb(0,121,73)"/><path d=" M 458.449 535.085 L 451.378 528.014 C 447.475 524.111 441.139 524.111 437.236 528.014 L 437.236 528.014 C 433.333 531.917 433.333 538.253 437.236 542.156 L 451.378 556.298 L 451.378 556.298 C 455.281 560.201 461.618 560.201 465.52 556.298 L 465.52 556.298 L 465.52 556.298 L 479.662 542.156 C 483.565 538.253 483.565 531.917 479.662 528.014 L 479.662 528.014 C 475.76 524.111 469.423 524.111 465.52 528.014 L 458.449 535.085 Z " fill-rule="evenodd" fill="rgb(0,94,56)"/><path d=" M 267.916 552.211 L 259.397 543.691 C 254.695 538.99 247.061 538.99 242.359 543.691 L 242.359 543.691 C 237.657 548.393 237.657 556.028 242.359 560.73 L 259.397 577.768 L 259.397 577.768 C 264.099 582.47 271.734 582.47 276.435 577.768 L 276.435 577.768 L 276.435 577.768 L 293.474 560.73 C 298.175 556.028 298.175 548.393 293.474 543.691 L 293.474 543.691 C 288.772 538.99 281.137 538.99 276.435 543.691 L 267.916 552.211 Z " fill-rule="evenodd" fill="rgb(1,79,47)"/><path d=" M 541.197 535.085 L 534.126 528.014 C 530.223 524.111 523.886 524.111 519.983 528.014 L 519.983 528.014 C 516.081 531.917 516.081 538.253 519.983 542.156 L 534.126 556.298 L 534.126 556.298 C 538.028 560.201 544.365 560.201 548.268 556.298 L 548.268 556.298 L 548.268 556.298 L 562.41 542.156 C 566.312 538.253 566.312 531.917 562.41 528.014 L 562.41 528.014 C 558.507 524.111 552.17 524.111 548.268 528.014 L 541.197 535.085 Z " fill-rule="evenodd" fill="rgb(0,94,56)"/><circle vector-effect="non-scaling-stroke" cx="61" cy="141.375" r="6" fill="rgb(255,255,255)"/><circle vector-effect="non-scaling-stroke" cx="149.71158410816756" cy="52.74999999999994" r="6" fill="rgb(255,255,255)"/><circle vector-effect="non-scaling-stroke" cx="190.88721306440436" cy="258" r="6" fill="rgb(255,255,255)"/><circle vector-effect="non-scaling-stroke" cx="281.11278693559564" cy="147.375" r="6" fill="rgb(255,255,255)"/><circle vector-effect="non-scaling-stroke" cx="599.2736424657351" cy="64.74999999999994" r="6" fill="rgb(255,255,255)"/><circle vector-effect="non-scaling-stroke" cx="555.7474054240843" cy="333.12137359828125" r="6" fill="rgb(255,255,255)"/><circle vector-effect="non-scaling-stroke" cx="400.5000000000002" cy="377.00000000000006" r="6" fill="rgb(255,255,255)"/><circle vector-effect="non-scaling-stroke" cx="842.3174759702146" cy="230" r="6" fill="rgb(255,255,255)"/><circle vector-effect="non-scaling-stroke" cx="684.6511304508423" cy="194.00000000000003" r="6" fill="rgb(255,255,255)"/><circle vector-effect="non-scaling-stroke" cx="920.0000000000001" cy="93" r="6" fill="rgb(255,255,255)"/></g></svg>