<?xml version="1.0" encoding="UTF-8" standalone="no"?><!-- Generator: Gravit.io --><svg xmlns="http://www.w3.org/2000/svg" xmlns:xlink="http://www.w3.org/1999/xlink" style="isolation:isolate" viewBox="0 0 750 200" width="750pt" height="200pt"><defs><clipPath id="_clipPath_J1CxmaIyilndctHOtT6U1HQakMbaseSO"><rect width="750" height="200"/></clipPath></defs><g clip-path="url(#_clipPath_J1CxmaIyilndctHOtT6U1HQakMbaseSO)"><path d="M 100 0 L 650 0 C 705.192 0 750 44.808 750 100 L 750 100 C 750 155.192 705.192 200 650 200 L 100 200 C 44.808 200 0 155.192 0 100 L 0 100 C 0 44.808 44.808 0 100 0 Z" style="stroke:none;fill:#EBEBEB;stroke-miterlimit:10;"/><circle vector-effect="non-scaling-stroke" cx="99.99999999999999" cy="100.00000000000001" r="71.99999999999999" fill="rgb(0,100,255)"/><path d="M 65 85 L 135 85 C 143.279 85 150 91.721 150 100 L 150 100 C 150 108.279 143.279 115 135 115 L 65 115 C 56.721 115 50 108.279 50 100 L 50 100 C 50 91.721 56.721 85 65 85 Z" style="stroke:none;fill:#F9C879;stroke-miterlimit:10;"/><circle vector-effect="non-scaling-stroke" cx="83" cy="100.00000000000001" r="6" fill="rgb(0,0,0)"/><circle vector-effect="non-scaling-stroke" cx="117" cy="100.00000000000001" r="6" fill="rgb(0,0,0)"/><text transform="matrix(1,0,0,1,195.5,126)" style="font-family:'Alata';font-weight:400;font-size:75px;font-style:normal;fill:#000000;stroke:none;">Samuraininja</text></g></svg>