<?xml version="1.0" encoding="UTF-8" standalone="no"?><!-- Generator: Gravit.io --><svg xmlns="http://www.w3.org/2000/svg" xmlns:xlink="http://www.w3.org/1999/xlink" style="isolation:isolate" viewBox="0 0 480 360" width="480pt" height="360pt"><defs><clipPath id="_clipPath_8eu7rNeiobnigIFG5jNpQvXD2Cf0Di8z"><rect width="480" height="360"/></clipPath></defs><g clip-path="url(#_clipPath_8eu7rNeiobnigIFG5jNpQvXD2Cf0Di8z)"><linearGradient id="_lgradient_0" x1="0.49305555555555547" y1="-0.0018518518518517713" x2="0.5000000000000001" y2="0.9999999999999998"><stop offset="0%" style="stop-color:#64C8FF"/><stop offset="100%" style="stop-color:#3296CD"/></linearGradient><rect width="480" height="360" style="fill:url(#_lgradient_0);"/><linearGradient id="_lgradient_1" x1="0.6485943775100402" y1="-0.007843137254901655" x2="0.2911646586345377" y2="1.0196078431372548" gradientTransform="matrix(83,0,0,85,198.5,195)" gradientUnits="userSpaceOnUse"><stop offset="0%" stop-opacity="1" style="stop-color:rgb(0,100,255)"/><stop offset="100%" stop-opacity="1" style="stop-color:rgb(0,50,205)"/></linearGradient><path d=" M 262.5 255 L 262.5 217.5 C 262.5 205.082 252.418 195 240 195 L 240 195 C 227.582 195 217.5 205.082 217.5 217.5 L 217.5 255 L 217.5 272.5 C 217.5 276.639 220.861 280 225 280 L 225 280 C 229.139 280 232.5 276.639 232.5 272.5 L 232.5 255 L 247.5 255 L 247.5 272.5 C 247.5 276.639 250.861 280 255 280 L 255 280 C 259.139 280 262.5 276.639 262.5 272.5 L 262.5 255 L 262.5 255 Z  M 281.5 240 C 281.5 235.861 278.139 232.5 274 232.5 C 269.861 232.5 266.5 235.861 266.5 240 C 266.5 244.139 269.861 247.5 274 247.5 C 278.139 247.5 281.5 244.139 281.5 240 L 281.5 240 Z  M 198.5 240 C 198.5 235.861 201.861 232.5 206 232.5 C 210.139 232.5 213.5 235.861 213.5 240 C 213.5 244.139 210.139 247.5 206 247.5 C 201.861 247.5 198.5 244.139 198.5 240 Z " fill-rule="evenodd" fill="url(#_lgradient_1)"/><g><path d="M 227.5 217.5 L 252.5 217.5 C 256.639 217.5 260 220.861 260 225 L 260 225 C 260 229.139 256.639 232.5 252.5 232.5 L 227.5 232.5 C 223.361 232.5 220 229.139 220 225 L 220 225 C 220 220.861 223.361 217.5 227.5 217.5 Z" style="stroke:none;fill:#000000;stroke-miterlimit:10;"/><circle vector-effect="non-scaling-stroke" cx="232.49999999999994" cy="225" r="2.5" fill="rgb(255,255,255)"/><rect x="228.518" y="221.25" width="7.964" height="2.5" transform="matrix(0.966,0.259,-0.259,0.966,65.509,-52.594)" fill="rgb(0,0,0)"/><circle vector-effect="non-scaling-stroke" cx="247.49999999999994" cy="225" r="2.5" fill="rgb(255,255,255)"/><rect x="243.518" y="221.25" width="7.964" height="2.5" transform="matrix(0.966,-0.259,0.259,0.966,-49.154,71.639)" fill="rgb(0,0,0)"/></g><g><rect x="0" y="280" width="480" height="80" transform="matrix(1,0,0,1,0,0)" fill="rgb(142,103,58)"/><rect x="0" y="280" width="480" height="40" transform="matrix(1,0,0,1,0,0)" fill="rgb(155,111,60)"/><rect x="0" y="340" width="480" height="20" transform="matrix(1,0,0,1,0,0)" fill="rgb(155,111,60)"/><rect x="0" y="280" width="480" height="20" transform="matrix(1,0,0,1,0,0)" fill="rgb(53,174,55)"/><rect x="0" y="280" width="480" height="10" transform="matrix(1,0,0,1,0,0)" fill="rgb(58,195,60)"/></g><g><path d=" M 326.413 280 L 319.388 280 L 322.9 273.916 L 327.194 266.479 L 327.194 266.479 L 331.487 259.043 C 333.426 255.685 336.574 255.685 338.513 259.043 L 342.806 266.479 L 347.1 273.916 C 347.1 273.916 347.1 273.916 347.1 273.916 L 350.612 280 L 343.587 280 L 343.587 280 L 335 280 L 326.413 280 L 326.413 280 Z " fill-rule="evenodd" fill="rgb(235,235,235)"/><path d=" M 344.832 280 L 337.806 280 L 341.319 273.916 L 345.612 266.479 L 345.612 266.479 L 349.906 259.043 C 351.845 255.685 354.993 255.685 356.932 259.043 L 361.225 266.479 L 365.518 273.916 C 365.518 273.916 365.518 273.916 365.518 273.916 L 369.031 280 L 362.006 280 L 362.006 280 L 353.419 280 L 344.832 280 L 344.832 280 Z " fill-rule="evenodd" fill="rgb(235,235,235)"/><path d=" M 363.251 280 L 356.225 280 L 359.738 273.916 L 364.031 266.479 L 364.031 266.479 L 368.325 259.043 C 370.263 255.685 373.412 255.685 375.35 259.043 L 379.644 266.479 L 383.937 273.916 C 383.937 273.916 383.937 273.916 383.937 273.916 L 387.45 280 L 380.424 280 L 380.424 280 L 371.837 280 L 363.251 280 L 363.251 280 Z " fill-rule="evenodd" fill="rgb(235,235,235)"/><path d=" M 381.669 280 L 374.644 280 L 378.157 273.916 L 382.45 266.479 L 382.45 266.479 L 386.743 259.043 C 388.682 255.685 391.83 255.685 393.769 259.043 L 398.062 266.479 L 402.356 273.916 C 402.356 273.916 402.356 273.916 402.356 273.916 L 405.869 280 L 398.843 280 L 398.843 280 L 390.256 280 L 381.669 280 L 381.669 280 Z " fill-rule="evenodd" fill="rgb(235,235,235)"/><path d=" M 400.088 280 L 393.062 280 L 396.575 273.916 L 400.869 266.479 L 400.869 266.479 L 405.162 259.043 C 407.101 255.685 410.249 255.685 412.188 259.043 L 416.481 266.479 L 420.775 273.916 C 420.775 273.916 420.775 273.916 420.775 273.916 L 424.287 280 L 417.262 280 L 417.262 280 L 408.675 280 L 400.088 280 L 400.088 280 Z " fill-rule="evenodd" fill="rgb(235,235,235)"/></g></g></svg>