<?xml version="1.0" encoding="UTF-8" standalone="no"?><!-- Generator: Gravit.io --><svg xmlns="http://www.w3.org/2000/svg" xmlns:xlink="http://www.w3.org/1999/xlink" style="isolation:isolate" viewBox="0 0 400 400" width="400pt" height="400pt"><defs><clipPath id="_clipPath_cG4BJCzNJ8V80h41xGZvuVkRo15Vq17s"><rect width="400" height="400"/></clipPath></defs><g clip-path="url(#_clipPath_cG4BJCzNJ8V80h41xGZvuVkRo15Vq17s)"><rect x="0" y="0" width="400" height="400" transform="matrix(1,0,0,1,0,0)" fill="rgb(255,75,43)"/><path d=" M 34.763 104 L 40.394 60.189 L 21.5 20.263 L 65.311 25.894 L 105.237 7 L 99.606 50.811 L 118.5 90.737 L 74.689 85.106 L 34.763 104 Z " fill="rgb(235,235,235)"/><path d="M 136.212 32.75 L 263.787 32.75 C 306.816 32.75 341.75 67.684 341.75 110.712 L 341.75 268.787 C 341.75 311.816 306.816 346.75 263.787 346.75 L 136.212 346.75 C 93.184 346.75 58.25 311.816 58.25 268.787 L 58.25 110.712 C 58.25 67.684 93.184 32.75 136.212 32.75 Z" style="stroke:none;fill:#2870FF;stroke-miterlimit:10;"/><path d="M 59.491 107.5 L 340.509 107.5 C 345.678 107.5 349.875 111.697 349.875 116.866 L 349.875 132.634 C 349.875 137.803 345.678 142 340.509 142 L 59.491 142 C 54.322 142 50.125 137.803 50.125 132.634 L 50.125 116.866 C 50.125 111.697 54.322 107.5 59.491 107.5 Z" style="stroke:none;fill:#FFB700;stroke-miterlimit:10;"/><path d="M 138.75 163.5 L 261.25 163.5 C 274.91 163.5 286 174.59 286 188.25 L 286 188.25 C 286 201.91 274.91 213 261.25 213 L 138.75 213 C 125.09 213 114 201.91 114 188.25 L 114 188.25 C 114 174.59 125.09 163.5 138.75 163.5 Z" style="stroke:none;fill:#F9C879;stroke-miterlimit:10;"/><path d="M 213 228.483 L 213 228.483 C 217.541 231.105 219.099 236.92 216.477 241.461 L 199.977 270.039 C 197.356 274.58 191.541 276.138 187 273.517 L 187 273.517 C 182.459 270.895 180.901 265.08 183.523 260.539 L 200.023 231.961 C 202.644 227.42 208.459 225.862 213 228.483 Z" style="stroke:none;fill:#FFB700;stroke-miterlimit:10;"/><path d="M 217.773 264.194 L 217.773 264.194 C 222.313 266.815 223.872 272.63 221.25 277.171 L 204.75 305.75 C 202.128 310.291 196.313 311.849 191.773 309.227 L 191.773 309.227 C 187.232 306.606 185.674 300.791 188.296 296.25 L 204.796 267.671 C 207.417 263.13 213.232 261.572 217.773 264.194 Z" style="stroke:none;fill:#FFB700;stroke-miterlimit:10;"/><circle vector-effect="non-scaling-stroke" cx="155.99999999999997" cy="189.74999999999997" r="10" fill="rgb(2,2,2)"/><circle vector-effect="non-scaling-stroke" cx="243.99999999999986" cy="189.74999999999997" r="10" fill="rgb(2,2,2)"/><path d="M 137.974 167.549 L 178.543 178.419 C 181.209 179.134 182.793 181.878 182.079 184.543 L 182.079 184.543 C 181.364 187.209 178.62 188.793 175.955 188.079 L 135.386 177.208 C 132.72 176.494 131.136 173.75 131.85 171.085 L 131.85 171.085 C 132.565 168.419 135.309 166.835 137.974 167.549 Z" style="stroke:none;fill:#000000;stroke-miterlimit:10;"/><path d="M 261.99 167.549 L 221.421 178.419 C 218.756 179.134 217.172 181.878 217.886 184.543 L 217.886 184.543 C 218.6 187.209 221.344 188.793 224.01 188.079 L 264.579 177.208 C 267.244 176.494 268.828 173.75 268.114 171.085 L 268.114 171.085 C 267.4 168.419 264.656 166.835 261.99 167.549 Z" style="stroke:none;fill:#000000;stroke-miterlimit:10;"/><path d=" M 100.563 373.016 L 65.437 346.234 L 21.413 342.634 L 48.195 307.508 L 51.795 263.484 L 86.921 290.266 L 130.945 293.866 L 104.163 328.992 L 100.563 373.016 Z " fill="rgb(235,235,235)"/><path d=" M 277.5 258.9 L 304.283 223.774 L 307.883 179.75 L 343.008 206.533 L 387.033 210.133 L 360.25 245.258 L 356.65 289.283 L 321.524 262.5 L 277.5 258.9 Z " fill="rgb(235,235,235)"/></g></svg>