<?xml version="1.0" encoding="UTF-8" standalone="no"?><!-- Generator: Gravit.io --><svg xmlns="http://www.w3.org/2000/svg" xmlns:xlink="http://www.w3.org/1999/xlink" style="isolation:isolate" viewBox="0 0 100 100" width="100pt" height="100pt"><defs><clipPath id="_clipPath_SSXMvZtlchS7iCyCK5IStmSQidPW6JfH"><rect width="100" height="100"/></clipPath></defs><g clip-path="url(#_clipPath_SSXMvZtlchS7iCyCK5IStmSQidPW6JfH)"><circle vector-effect="non-scaling-stroke" cx="50" cy="50" r="50" fill="rgb(0,100,255)"/><g><path d="M 25.5 38 L 74.5 38 C 81.123 38 86.5 43.377 86.5 50 L 86.5 50 C 86.5 56.623 81.123 62 74.5 62 L 25.5 62 C 18.877 62 13.5 56.623 13.5 50 L 13.5 50 C 13.5 43.377 18.877 38 25.5 38 Z" style="stroke:none;fill:#000000;stroke-miterlimit:10;"/><circle vector-effect="non-scaling-stroke" cx="64.00000000000006" cy="50.00000000000003" r="4.5" fill="rgb(235,235,235)"/><circle vector-effect="non-scaling-stroke" cx="36.000000000000036" cy="50.00000000000003" r="4.5" fill="rgb(235,235,235)"/><rect x="29.75" y="43.5" width="12.5" height="4.75" transform="matrix(0.966,0.259,-0.259,0.966,13.1,-7.754)" fill="rgb(0,0,0)"/><rect x="57.75" y="43.5" width="12.5" height="4.75" transform="matrix(0.966,-0.259,0.259,0.966,-9.693,18.128)" fill="rgb(0,0,0)"/></g></g></svg>