<?xml version="1.0" encoding="UTF-8" standalone="no"?><!-- Generator: Gravit.io --><svg xmlns="http://www.w3.org/2000/svg" xmlns:xlink="http://www.w3.org/1999/xlink" style="isolation:isolate" viewBox="0 0 200 200" width="200pt" height="200pt"><defs><clipPath id="_clipPath_AU8HCUZUFttCqfa6ndRYhALn982Knd8P"><rect width="200" height="200"/></clipPath></defs><g clip-path="url(#_clipPath_AU8HCUZUFttCqfa6ndRYhALn982Knd8P)"><path d="M 54 0 L 146 0 C 175.803 0 200 24.197 200 54 L 200 146 C 200 175.803 175.803 200 146 200 L 54 200 C 24.197 200 0 175.803 0 146 L 0 54 C 0 24.197 24.197 0 54 0 Z" style="stroke:none;fill:#0064FF;stroke-miterlimit:10;"/><path d="M 51 76 L 149 76 C 162.246 76 173 86.754 173 100 L 173 100 C 173 113.246 162.246 124 149 124 L 51 124 C 37.754 124 27 113.246 27 100 L 27 100 C 27 86.754 37.754 76 51 76 Z" style="stroke:none;fill:#000000;stroke-miterlimit:10;"/><circle vector-effect="non-scaling-stroke" cx="128.0000000000001" cy="100" r="9" fill="rgb(235,235,235)"/><circle vector-effect="non-scaling-stroke" cx="72.00000000000009" cy="100.00000000000003" r="9" fill="rgb(235,235,235)"/><rect x="59.5" y="87" width="25" height="9.5" transform="matrix(0.966,0.259,-0.259,0.966,26.2,-15.509)" fill="rgb(0,0,0)"/><rect x="115.5" y="87" width="25" height="9.5" transform="matrix(0.966,-0.259,0.259,0.966,-19.385,36.255)" fill="rgb(0,0,0)"/></g></svg>