<?xml version="1.0" encoding="UTF-8" standalone="no"?><!-- Generator: Gravit.io --><svg xmlns="http://www.w3.org/2000/svg" xmlns:xlink="http://www.w3.org/1999/xlink" style="isolation:isolate" viewBox="0 0 50 50" width="50pt" height="50pt"><defs><clipPath id="_clipPath_9kFtAF7fGZjB2pIHbgopv7fN7oHzocpd"><rect width="50" height="50"/></clipPath></defs><g clip-path="url(#_clipPath_9kFtAF7fGZjB2pIHbgopv7fN7oHzocpd)"><path d=" M 36.076 44.754 L 27.944 40.479 C 26.319 39.624 23.681 39.624 22.056 40.479 L 13.924 44.754 C 12.298 45.608 11.231 44.833 11.541 43.023 L 13.095 33.968 C 13.405 32.159 12.59 29.649 11.275 28.368 L 4.696 21.955 C 3.381 20.673 3.789 19.418 5.606 19.154 L 14.698 17.833 C 16.515 17.569 18.649 16.018 19.462 14.372 L 23.528 6.133 C 24.34 4.487 25.66 4.487 26.472 6.133 L 30.538 14.372 C 31.351 16.018 33.485 17.569 35.302 17.833 L 44.394 19.154 C 46.211 19.418 46.619 20.673 45.304 21.955 L 38.725 28.368 C 37.41 29.649 36.595 32.159 36.905 33.968 L 38.459 43.023 C 38.769 44.833 37.702 45.608 36.076 44.754 Z " fill="rgb(255,213,0)"/><path d=" M 33.373 21.939 C 29.488 21.226 26.394 17.993 26.034 13.869" fill="none" vector-effect="non-scaling-stroke" stroke-width="2" stroke="rgb(255,255,255)" stroke-linejoin="miter" stroke-linecap="square" stroke-miterlimit="3"/><circle vector-effect="non-scaling-stroke" cx="34.4" cy="22.05" r="1" fill="rgb(255,255,255)"/><circle vector-effect="non-scaling-stroke" cx="26" cy="13" r="1" fill="rgb(255,255,255)"/></g></svg>