<svg version="1.1" xmlns="http://www.w3.org/2000/svg" xmlns:xlink="http://www.w3.org/1999/xlink" width="1021.8986" height="821.85076" viewBox="0,0,1021.8986,821.85076"><defs><linearGradient x1="274216.7133" y1="803819.46066" x2="-721347.37718" y2="-855454.0235" gradientUnits="userSpaceOnUse" id="color-1"><stop offset="0" stop-color="#ffdb2b"/><stop offset="1" stop-color="#ffdb2b" stop-opacity="0"/></linearGradient><linearGradient x1="78838.64681" y1="374321.72712" x2="-275271.01882" y2="-421816.63385" gradientUnits="userSpaceOnUse" id="color-2"><stop offset="0" stop-color="#ff6537"/><stop offset="1" stop-color="#ff6537" stop-opacity="0"/></linearGradient><linearGradient x1="65608.64612" y1="311208.62259" x2="-228764.32025" y2="-350624.79723" gradientUnits="userSpaceOnUse" id="color-3"><stop offset="0" stop-color="#ff6537"/><stop offset="1" stop-color="#ff6537" stop-opacity="0"/></linearGradient><linearGradient x1="49199.22151" y1="232921.99459" x2="-171077.3856" y2="-262321.91998" gradientUnits="userSpaceOnUse" id="color-4"><stop offset="0" stop-color="#ff6537"/><stop offset="1" stop-color="#ff6537" stop-opacity="0"/></linearGradient><linearGradient x1="276457.14363" y1="811017.69933" x2="-728097.17208" y2="-863239.49368" gradientUnits="userSpaceOnUse" id="color-5"><stop offset="0" stop-color="#ffffff"/><stop offset="1" stop-color="#ffffff" stop-opacity="0"/></linearGradient><linearGradient x1="229832.65864" y1="674248.13628" x2="-605257.8869" y2="-717569.43969" gradientUnits="userSpaceOnUse" id="color-6"><stop offset="0" stop-color="#ffffff"/><stop offset="1" stop-color="#ffffff" stop-opacity="0"/></linearGradient><linearGradient x1="172001.71467" y1="504596.35886" x2="-452888.9277" y2="-536888.04499" gradientUnits="userSpaceOnUse" id="color-7"><stop offset="0" stop-color="#ffffff"/><stop offset="1" stop-color="#ffffff" stop-opacity="0"/></linearGradient><linearGradient x1="166191.61981" y1="486795.9605" x2="-436623.25893" y2="-517895.504" gradientUnits="userSpaceOnUse" id="color-8"><stop offset="0" stop-color="#00516b"/><stop offset="1" stop-color="#00516b" stop-opacity="0"/></linearGradient><linearGradient x1="166194.61981" y1="486804.9605" x2="-436620.25893" y2="-517886.504" gradientUnits="userSpaceOnUse" id="color-9"><stop offset="0" stop-color="#00516b"/><stop offset="1" stop-color="#00516b" stop-opacity="0"/></linearGradient><linearGradient x1="166196.61981" y1="486815.9605" x2="-436618.25893" y2="-517875.504" gradientUnits="userSpaceOnUse" id="color-10"><stop offset="0" stop-color="#00516b"/><stop offset="1" stop-color="#00516b" stop-opacity="0"/></linearGradient></defs><g transform="translate(106.89851,332.42035)"><g data-paper-data="{&quot;isPaintingLayer&quot;:true}" fill-rule="nonzero" stroke-linejoin="miter" stroke-dasharray="" stroke-dashoffset="0" style="mix-blend-mode: normal"><path d="M-20.99994,361.00001v-398h531v398z" data-paper-data="{&quot;origPos&quot;:null}" fill="#ffa95c" stroke="none" stroke-width="0" stroke-linecap="butt" stroke-miterlimit="10"/><g data-paper-data="{&quot;origPos&quot;:null}" fill="#0f0f0f" stroke="none" stroke-width="0" stroke-linecap="butt" stroke-miterlimit="10"><g data-paper-data="{&quot;origPos&quot;:null}"><path d="M-22.14277,177.01007l-0.83939,-109.37422l21.77683,2.05975l0.6754,106.88311z" data-paper-data="{&quot;origPos&quot;:null,&quot;origRot&quot;:0}"/><path d="M-23.09998,99.17044l-0.32794,-23.44618l21.483,-0.30048l0.32793,23.44619z" data-paper-data="{&quot;origPos&quot;:null,&quot;origRot&quot;:0}"/><path d="M-26.48881,96.91934l-0.30421,-21.75067l28.02861,-0.39202l0.30422,21.75066z" data-paper-data="{&quot;origPos&quot;:null,&quot;origRot&quot;:0}"/><path d="M-23.0141,93.30922l-0.21127,-15.10524l3.02106,-0.04225l0.21128,15.10524z" data-paper-data="{&quot;origPos&quot;:null,&quot;origRot&quot;:0}"/><path d="M-5.39365,92.8949l-0.21127,-15.10525l3.02105,-0.04226l0.21126,15.10524z" data-paper-data="{&quot;origPos&quot;:null,&quot;origRot&quot;:0}"/><path d="M-17.64568,93.06626l-0.21127,-15.10524l3.02105,-0.04226l0.21126,15.10526z" data-paper-data="{&quot;origPos&quot;:null,&quot;origRot&quot;:0}"/><path d="M-10.59655,92.96765l-0.21127,-15.10524l3.02104,-0.04226l0.21127,15.10524z" data-paper-data="{&quot;origPos&quot;:null,&quot;origRot&quot;:0}"/><path d="M-16.8362,92.93184l-0.04695,-3.35671l7.55262,-0.10565l0.04695,3.35672z" data-paper-data="{&quot;origPos&quot;:null,&quot;origRot&quot;:0}"/><path d="M-16.49468,81.34412l-0.04695,-3.35672l7.55262,-0.10564l0.04695,3.35673z" data-paper-data="{&quot;origPos&quot;:null,&quot;origRot&quot;:0}"/><path d="M-22.81601,143.59678l-0.527,-37.67919l21.81868,-0.30517l0.527,37.67919z" data-paper-data="{&quot;origPos&quot;:null,&quot;origRot&quot;:0}"/><path d="M-26.20591,141.26883l-0.52994,-37.88898l28.02861,-0.39203l0.52994,37.88897z" data-paper-data="{&quot;origPos&quot;:null,&quot;origRot&quot;:0}"/><path d="M-22.00722,135.41024l-0.38733,-27.69292l3.02104,-0.04225l0.38733,27.69293z" data-paper-data="{&quot;origPos&quot;:null,&quot;origRot&quot;:0}"/><path d="M-22.01847,134.60463l-0.38734,-27.69293l3.02105,-0.04226l0.38733,27.69293z" data-paper-data="{&quot;origPos&quot;:null,&quot;origRot&quot;:0}"/><path d="M-22.26385,109.86084l-0.04086,-2.92034l14.60173,-0.20423l0.04085,2.92035z" data-paper-data="{&quot;origPos&quot;:null,&quot;origRot&quot;:0}"/><path d="M-10.40188,129.80897l-0.31973,-22.85927l3.02105,-0.04226l0.31973,22.85927z" data-paper-data="{&quot;origPos&quot;:null,&quot;origRot&quot;:0}"/><path d="M-16.24119,129.99138l-0.22253,-15.91085l3.02105,-0.04226l0.22255,15.91086z" data-paper-data="{&quot;origPos&quot;:null,&quot;origRot&quot;:0}"/><path d="M-16.14007,130.02017l-0.04508,-3.22246l8.66035,-0.12113l0.04507,3.22246z" data-paper-data="{&quot;origPos&quot;:null,&quot;origRot&quot;:0}"/><path d="M-21.99975,135.94398l-0.04085,-2.92035l19.83822,-0.27748l0.04085,2.92034z" data-paper-data="{&quot;origPos&quot;:null,&quot;origRot&quot;:0}"/><path d="M-4.67952,135.67148l-0.40424,-28.90136l3.02104,-0.04225l0.40423,28.90136z" data-paper-data="{&quot;origPos&quot;:null,&quot;origRot&quot;:0}"/><path d="M-22.17359,171.52256l-0.32794,-23.44619l21.483,-0.30048l0.32793,23.44619z" data-paper-data="{&quot;origPos&quot;:null,&quot;origRot&quot;:0}"/><path d="M-25.56246,169.27146l-0.30422,-21.75066l28.02861,-0.39204l0.30421,21.75067z" data-paper-data="{&quot;origPos&quot;:null,&quot;origRot&quot;:0}"/><path d="M-22.0877,165.66133l-0.21127,-15.10525l3.02106,-0.04226l0.21128,15.10524z" data-paper-data="{&quot;origPos&quot;:null,&quot;origRot&quot;:0}"/><path d="M-4.46727,165.24701l-0.21128,-15.10525l3.02104,-0.04225l0.21128,15.10524z" data-paper-data="{&quot;origPos&quot;:null,&quot;origRot&quot;:0}"/><path d="M-16.71929,165.41837l-0.21128,-15.10524l3.02105,-0.04226l0.21127,15.10525z" data-paper-data="{&quot;origPos&quot;:null,&quot;origRot&quot;:0}"/><path d="M-9.6702,165.3198l-0.21127,-15.10525l3.02104,-0.04226l0.21127,15.10525z" data-paper-data="{&quot;origPos&quot;:null,&quot;origRot&quot;:0}"/><path d="M-15.56828,153.69621l-0.04694,-3.35672l7.55263,-0.10564l0.04695,3.35672z" data-paper-data="{&quot;origPos&quot;:null,&quot;origRot&quot;:0}"/></g><g data-paper-data="{&quot;origPos&quot;:null}"><path d="M22.86017,178.17897l-0.83939,-109.37422l21.77683,2.05975l0.67541,106.88311z" data-paper-data="{&quot;origPos&quot;:null,&quot;origRot&quot;:0}"/><path d="M21.90297,100.33935l-0.32794,-23.44619l21.483,-0.30048l0.32793,23.44619z" data-paper-data="{&quot;origPos&quot;:null,&quot;origRot&quot;:0}"/><path d="M18.51414,98.08825l-0.30421,-21.75067l28.02861,-0.39203l0.30422,21.75067z" data-paper-data="{&quot;origPos&quot;:null,&quot;origRot&quot;:0}"/><path d="M21.98885,94.47813l-0.21127,-15.10523l3.02105,-0.04226l0.21128,15.10524z" data-paper-data="{&quot;origPos&quot;:null,&quot;origRot&quot;:0}"/><path d="M39.60933,94.06381l-0.21127,-15.10525l3.02105,-0.04226l0.21127,15.10524z" data-paper-data="{&quot;origPos&quot;:null,&quot;origRot&quot;:0}"/><path d="M27.35728,94.23517l-0.21127,-15.10525l3.02104,-0.04225l0.21127,15.10525z" data-paper-data="{&quot;origPos&quot;:null,&quot;origRot&quot;:0}"/><path d="M34.4064,94.13655l-0.21126,-15.10524l3.02104,-0.04225l0.21127,15.10524z" data-paper-data="{&quot;origPos&quot;:null,&quot;origRot&quot;:0}"/><path d="M28.16675,94.10075l-0.04694,-3.35672l7.55262,-0.10564l0.04695,3.35672z" data-paper-data="{&quot;origPos&quot;:null,&quot;origRot&quot;:0}"/><path d="M28.50829,82.51303l-0.04695,-3.35672l7.55262,-0.10565l0.04694,3.35673z" data-paper-data="{&quot;origPos&quot;:null,&quot;origRot&quot;:0}"/><path d="M22.18695,144.76567l-0.52701,-37.67919l21.81867,-0.30517l0.527,37.67919z" data-paper-data="{&quot;origPos&quot;:null,&quot;origRot&quot;:0}"/><path d="M18.79705,142.43773l-0.52994,-37.88897l28.02861,-0.39204l0.52994,37.88898z" data-paper-data="{&quot;origPos&quot;:null,&quot;origRot&quot;:0}"/><path d="M22.99574,136.57914l-0.38734,-27.69293l3.02104,-0.04224l0.38734,27.69293z" data-paper-data="{&quot;origPos&quot;:null,&quot;origRot&quot;:0}"/><path d="M22.98448,135.77355l-0.38733,-27.69293l3.02104,-0.04225l0.38733,27.69293z" data-paper-data="{&quot;origPos&quot;:null,&quot;origRot&quot;:0}"/><path d="M22.7391,111.02975l-0.04085,-2.92034l14.60172,-0.20422l0.04085,2.92035z" data-paper-data="{&quot;origPos&quot;:null,&quot;origRot&quot;:0}"/><path d="M34.60106,130.97788l-0.31972,-22.85928l3.02105,-0.04225l0.31973,22.85927z" data-paper-data="{&quot;origPos&quot;:null,&quot;origRot&quot;:0}"/><path d="M28.76177,131.16028l-0.22254,-15.91085l3.02105,-0.04226l0.22255,15.91086z" data-paper-data="{&quot;origPos&quot;:null,&quot;origRot&quot;:0}"/><path d="M28.86289,131.18908l-0.04507,-3.22246l8.66035,-0.12113l0.04507,3.22245z" data-paper-data="{&quot;origPos&quot;:null,&quot;origRot&quot;:0}"/><path d="M23.00319,137.11289l-0.04084,-2.92035l19.83821,-0.27748l0.04085,2.92035z" data-paper-data="{&quot;origPos&quot;:null,&quot;origRot&quot;:0}"/><path d="M40.32344,136.8404l-0.40425,-28.90136l3.02105,-0.04226l0.40423,28.90136z" data-paper-data="{&quot;origPos&quot;:null,&quot;origRot&quot;:0}"/><path d="M22.82935,172.69147l-0.32793,-23.44619l21.483,-0.30048l0.32793,23.44619z" data-paper-data="{&quot;origPos&quot;:null,&quot;origRot&quot;:0}"/><path d="M19.44048,170.44037l-0.30422,-21.75066l28.02861,-0.39204l0.30421,21.75067z" data-paper-data="{&quot;origPos&quot;:null,&quot;origRot&quot;:0}"/><path d="M22.91524,166.83023l-0.21126,-15.10525l3.02105,-0.04226l0.21128,15.10525z" data-paper-data="{&quot;origPos&quot;:null,&quot;origRot&quot;:0}"/><path d="M40.53569,166.41591l-0.21128,-15.10525l3.02105,-0.04224l0.21128,15.10524z" data-paper-data="{&quot;origPos&quot;:null,&quot;origRot&quot;:0}"/><path d="M28.28365,166.58728l-0.21128,-15.10525l3.02105,-0.04226l0.21127,15.10525z" data-paper-data="{&quot;origPos&quot;:null,&quot;origRot&quot;:0}"/><path d="M35.33277,166.4887l-0.21127,-15.10525l3.02104,-0.04225l0.21127,15.10524z" data-paper-data="{&quot;origPos&quot;:null,&quot;origRot&quot;:0}"/><path d="M29.43467,154.86512l-0.04694,-3.35671l7.55263,-0.10564l0.04695,3.35673z" data-paper-data="{&quot;origPos&quot;:null,&quot;origRot&quot;:0}"/></g><g data-paper-data="{&quot;origPos&quot;:null}"><path d="M69.03203,175.84116l-0.83939,-109.37423l21.77683,2.05975l0.67541,106.88311z" data-paper-data="{&quot;origPos&quot;:null,&quot;origRot&quot;:0}"/><path d="M68.07485,98.00153l-0.32794,-23.44618l21.483,-0.30048l0.32793,23.44619z" data-paper-data="{&quot;origPos&quot;:null,&quot;origRot&quot;:0}"/><path d="M64.686,95.75044l-0.30421,-21.75067l28.02861,-0.39203l0.30422,21.75066z" data-paper-data="{&quot;origPos&quot;:null,&quot;origRot&quot;:0}"/><path d="M68.16074,92.14031l-0.21127,-15.10523l3.02106,-0.04226l0.21128,15.10524z" data-paper-data="{&quot;origPos&quot;:null,&quot;origRot&quot;:0}"/><path d="M85.78119,91.72599l-0.21127,-15.10525l3.02104,-0.04225l0.21127,15.10524z" data-paper-data="{&quot;origPos&quot;:null,&quot;origRot&quot;:0}"/><path d="M73.52915,91.89735l-0.21127,-15.10524l3.02104,-0.04226l0.21127,15.10525z" data-paper-data="{&quot;origPos&quot;:null,&quot;origRot&quot;:0}"/><path d="M80.57827,91.79874l-0.21127,-15.10524l3.02104,-0.04225l0.21127,15.10524z" data-paper-data="{&quot;origPos&quot;:null,&quot;origRot&quot;:0}"/><path d="M74.33864,91.76293l-0.04694,-3.35671l7.55262,-0.10564l0.04695,3.35672z" data-paper-data="{&quot;origPos&quot;:null,&quot;origRot&quot;:0}"/><path d="M74.68016,80.17521l-0.04695,-3.35672l7.55262,-0.10564l0.04694,3.35673z" data-paper-data="{&quot;origPos&quot;:null,&quot;origRot&quot;:0}"/><path d="M68.35883,142.42787l-0.527,-37.67919l21.81867,-0.30517l0.527,37.67919z" data-paper-data="{&quot;origPos&quot;:null,&quot;origRot&quot;:0}"/><path d="M64.96892,140.09992l-0.52994,-37.88898l28.02861,-0.39203l0.52994,37.88897z" data-paper-data="{&quot;origPos&quot;:null,&quot;origRot&quot;:0}"/><path d="M69.16762,134.24132l-0.38733,-27.69293l3.02104,-0.04225l0.38733,27.69294z" data-paper-data="{&quot;origPos&quot;:null,&quot;origRot&quot;:0}"/><path d="M69.15636,133.43573l-0.38733,-27.69293l3.02104,-0.04226l0.38733,27.69294z" data-paper-data="{&quot;origPos&quot;:null,&quot;origRot&quot;:0}"/><path d="M68.911,108.69193l-0.04086,-2.92034l14.60172,-0.20423l0.04085,2.92035z" data-paper-data="{&quot;origPos&quot;:null,&quot;origRot&quot;:0}"/><path d="M80.77294,128.64007l-0.31972,-22.85927l3.02105,-0.04225l0.31973,22.85927z" data-paper-data="{&quot;origPos&quot;:null,&quot;origRot&quot;:0}"/><path d="M74.93365,128.82248l-0.22254,-15.91085l3.02105,-0.04226l0.22254,15.91086z" data-paper-data="{&quot;origPos&quot;:null,&quot;origRot&quot;:0}"/><path d="M75.03476,128.85126l-0.04507,-3.22246l8.66034,-0.12113l0.04508,3.22246z" data-paper-data="{&quot;origPos&quot;:null,&quot;origRot&quot;:0}"/><path d="M69.17508,134.77507l-0.04085,-2.92035l19.83821,-0.27747l0.04084,2.92034z" data-paper-data="{&quot;origPos&quot;:null,&quot;origRot&quot;:0}"/><path d="M86.49533,134.50258l-0.40425,-28.90136l3.02104,-0.04226l0.40423,28.90136z" data-paper-data="{&quot;origPos&quot;:null,&quot;origRot&quot;:0}"/><path d="M69.00122,170.35365l-0.32794,-23.44619l21.483,-0.30048l0.32793,23.44619z" data-paper-data="{&quot;origPos&quot;:null,&quot;origRot&quot;:0}"/><path d="M65.61234,168.10255l-0.30422,-21.75066l28.02861,-0.39204l0.30421,21.75067z" data-paper-data="{&quot;origPos&quot;:null,&quot;origRot&quot;:0}"/><path d="M69.08712,164.49243l-0.21127,-15.10525l3.02105,-0.04226l0.21128,15.10525z" data-paper-data="{&quot;origPos&quot;:null,&quot;origRot&quot;:0}"/><path d="M86.70756,164.07809l-0.21128,-15.10525l3.02105,-0.04225l0.21128,15.10525z" data-paper-data="{&quot;origPos&quot;:null,&quot;origRot&quot;:0}"/><path d="M74.45552,164.24946l-0.21128,-15.10524l3.02105,-0.04226l0.21127,15.10524z" data-paper-data="{&quot;origPos&quot;:null,&quot;origRot&quot;:0}"/><path d="M81.50463,164.15088l-0.21127,-15.10525l3.02105,-0.04226l0.21127,15.10524z" data-paper-data="{&quot;origPos&quot;:null,&quot;origRot&quot;:0}"/><path d="M75.60655,152.5273l-0.04694,-3.35671l7.55262,-0.10564l0.04695,3.35673z" data-paper-data="{&quot;origPos&quot;:null,&quot;origRot&quot;:0}"/></g><g data-paper-data="{&quot;origPos&quot;:null}"><path d="M112.86608,176.42561l-0.8394,-109.37422l21.77683,2.05975l0.67541,106.88311z" data-paper-data="{&quot;origPos&quot;:null,&quot;origRot&quot;:0}"/><path d="M111.9089,98.58598l-0.32793,-23.44619l21.48299,-0.30048l0.32793,23.44619z" data-paper-data="{&quot;origPos&quot;:null,&quot;origRot&quot;:0}"/><path d="M108.52005,96.33489l-0.30421,-21.75067l28.02861,-0.39202l0.30422,21.75066z" data-paper-data="{&quot;origPos&quot;:null,&quot;origRot&quot;:0}"/><path d="M111.99479,92.72477l-0.21127,-15.10523l3.02105,-0.04226l0.21128,15.10525z" data-paper-data="{&quot;origPos&quot;:null,&quot;origRot&quot;:0}"/><path d="M129.61524,92.31044l-0.21127,-15.10525l3.02104,-0.04225l0.21127,15.10524z" data-paper-data="{&quot;origPos&quot;:null,&quot;origRot&quot;:0}"/><path d="M117.3632,92.48181l-0.21127,-15.10524l3.02104,-0.04226l0.21127,15.10526z" data-paper-data="{&quot;origPos&quot;:null,&quot;origRot&quot;:0}"/><path d="M124.41232,92.38319l-0.21127,-15.10525l3.02104,-0.04225l0.21127,15.10524z" data-paper-data="{&quot;origPos&quot;:null,&quot;origRot&quot;:0}"/><path d="M118.17269,92.34739l-0.04694,-3.35671l7.55262,-0.10565l0.04695,3.35672z" data-paper-data="{&quot;origPos&quot;:null,&quot;origRot&quot;:0}"/><path d="M118.51421,80.75965l-0.04695,-3.35672l7.55262,-0.10564l0.04694,3.35672z" data-paper-data="{&quot;origPos&quot;:null,&quot;origRot&quot;:0}"/><path d="M112.19287,143.01232l-0.527,-37.67919l21.81867,-0.30517l0.52701,37.67919z" data-paper-data="{&quot;origPos&quot;:null,&quot;origRot&quot;:0}"/><path d="M108.80296,140.68437l-0.52994,-37.88898l28.02861,-0.39203l0.52994,37.88897z" data-paper-data="{&quot;origPos&quot;:null,&quot;origRot&quot;:0}"/><path d="M113.00167,134.82578l-0.38733,-27.69292l3.02104,-0.04225l0.38734,27.69293z" data-paper-data="{&quot;origPos&quot;:null,&quot;origRot&quot;:0}"/><path d="M112.9904,134.02018l-0.38733,-27.69293l3.02104,-0.04225l0.38734,27.69293z" data-paper-data="{&quot;origPos&quot;:null,&quot;origRot&quot;:0}"/><path d="M112.74504,109.27638l-0.04086,-2.92034l14.60173,-0.20423l0.04085,2.92035z" data-paper-data="{&quot;origPos&quot;:null,&quot;origRot&quot;:0}"/><path d="M124.60698,129.22452l-0.31973,-22.85927l3.02105,-0.04225l0.31973,22.85928z" data-paper-data="{&quot;origPos&quot;:null,&quot;origRot&quot;:0}"/><path d="M118.76769,129.40692l-0.22254,-15.91086l3.02105,-0.04225l0.22255,15.91086z" data-paper-data="{&quot;origPos&quot;:null,&quot;origRot&quot;:0}"/><path d="M118.86881,129.43571l-0.04507,-3.22246l8.66034,-0.12113l0.04508,3.22246z" data-paper-data="{&quot;origPos&quot;:null,&quot;origRot&quot;:0}"/><path d="M113.00911,135.35953l-0.04085,-2.92035l19.83821,-0.27747l0.04085,2.92034z" data-paper-data="{&quot;origPos&quot;:null,&quot;origRot&quot;:0}"/><path d="M130.32937,135.08703l-0.40424,-28.90136l3.02104,-0.04226l0.40423,28.90136z" data-paper-data="{&quot;origPos&quot;:null,&quot;origRot&quot;:0}"/><path d="M112.83527,170.93811l-0.32794,-23.44619l21.483,-0.30048l0.32793,23.44619z" data-paper-data="{&quot;origPos&quot;:null,&quot;origRot&quot;:0}"/><path d="M109.44639,168.68701l-0.30422,-21.75066l28.02861,-0.39204l0.30421,21.75067z" data-paper-data="{&quot;origPos&quot;:null,&quot;origRot&quot;:0}"/><path d="M112.92117,165.07687l-0.21127,-15.10525l3.02105,-0.04226l0.21128,15.10524z" data-paper-data="{&quot;origPos&quot;:null,&quot;origRot&quot;:0}"/><path d="M130.5416,164.66255l-0.21128,-15.10525l3.02105,-0.04225l0.21128,15.10525z" data-paper-data="{&quot;origPos&quot;:null,&quot;origRot&quot;:0}"/><path d="M118.28957,164.8339l-0.21128,-15.10524l3.02105,-0.04226l0.21127,15.10524z" data-paper-data="{&quot;origPos&quot;:null,&quot;origRot&quot;:0}"/><path d="M125.33869,164.73534l-0.21127,-15.10525l3.02105,-0.04226l0.21126,15.10525z" data-paper-data="{&quot;origPos&quot;:null,&quot;origRot&quot;:0}"/><path d="M119.4406,153.11175l-0.04694,-3.35671l7.55262,-0.10564l0.04695,3.35672z" data-paper-data="{&quot;origPos&quot;:null,&quot;origRot&quot;:0}"/></g><g data-paper-data="{&quot;origPos&quot;:null}"><path d="M-25.77199,71.00242v-20.45589h163.19257v20.45589z" data-paper-data="{&quot;origPos&quot;:null}"/><path d="M-25.77199,64.57343v-14.02689h163.19257v14.02689z" data-paper-data="{&quot;origPos&quot;:null}"/><path d="M-25.77199,60.48225v-9.93572h163.19257v9.93572z" data-paper-data="{&quot;origPos&quot;:null}"/><path d="M80.40797,55.98878v-3.87367h57.35624v3.87367z" data-paper-data="{&quot;origPos&quot;:null}"/><path d="M44.70959,55.98878v-3.87367h38.41425v3.87367z" data-paper-data="{&quot;origPos&quot;:null}"/><path d="M8.70033,56.03611v-3.87367h36.90379v3.87367z" data-paper-data="{&quot;origPos&quot;:null}"/></g><path d="M-26.16967,57.20501v-3.87367h31.09827v3.87367z" data-paper-data="{&quot;origPos&quot;:null}"/></g><g data-paper-data="{&quot;origPos&quot;:null}" fill="#0f0f0f" stroke="none" stroke-width="0" stroke-linecap="butt" stroke-miterlimit="10"><g data-paper-data="{&quot;origPos&quot;:null}"><path d="M-21.14278,301.01007l-0.83939,-109.37422l21.77683,2.05975l0.6754,106.88311z" data-paper-data="{&quot;origPos&quot;:null,&quot;origRot&quot;:0}"/><path d="M-22.09999,223.17044l-0.32794,-23.44618l21.483,-0.30048l0.32793,23.44619z" data-paper-data="{&quot;origPos&quot;:null,&quot;origRot&quot;:0}"/><path d="M-25.48882,220.91934l-0.30421,-21.75067l28.02861,-0.39202l0.30422,21.75066z" data-paper-data="{&quot;origPos&quot;:null,&quot;origRot&quot;:0}"/><path d="M-22.0141,217.30922l-0.21127,-15.10524l3.02106,-0.04225l0.21128,15.10524z" data-paper-data="{&quot;origPos&quot;:null,&quot;origRot&quot;:0}"/><path d="M-4.39365,216.8949l-0.21127,-15.10525l3.02105,-0.04226l0.21126,15.10524z" data-paper-data="{&quot;origPos&quot;:null,&quot;origRot&quot;:0}"/><path d="M-16.64568,217.06626l-0.21127,-15.10524l3.02105,-0.04226l0.21126,15.10526z" data-paper-data="{&quot;origPos&quot;:null,&quot;origRot&quot;:0}"/><path d="M-9.59655,216.96765l-0.21127,-15.10524l3.02104,-0.04226l0.21127,15.10524z" data-paper-data="{&quot;origPos&quot;:null,&quot;origRot&quot;:0}"/><path d="M-15.8362,216.93184l-0.04695,-3.35671l7.55262,-0.10565l0.04695,3.35672z" data-paper-data="{&quot;origPos&quot;:null,&quot;origRot&quot;:0}"/><path d="M-15.49468,205.34412l-0.04695,-3.35672l7.55262,-0.10564l0.04695,3.35673z" data-paper-data="{&quot;origPos&quot;:null,&quot;origRot&quot;:0}"/><path d="M-21.81601,267.59677l-0.527,-37.67919l21.81868,-0.30517l0.527,37.67919z" data-paper-data="{&quot;origPos&quot;:null,&quot;origRot&quot;:0}"/><path d="M-25.20591,265.26883l-0.52994,-37.88898l28.02861,-0.39203l0.52994,37.88897z" data-paper-data="{&quot;origPos&quot;:null,&quot;origRot&quot;:0}"/><path d="M-21.00722,259.41024l-0.38733,-27.69293l3.02104,-0.04225l0.38733,27.69294z" data-paper-data="{&quot;origPos&quot;:null,&quot;origRot&quot;:0}"/><path d="M-21.01847,258.60463l-0.38734,-27.69293l3.02105,-0.04226l0.38733,27.69294z" data-paper-data="{&quot;origPos&quot;:null,&quot;origRot&quot;:0}"/><path d="M-21.26385,233.86084l-0.04086,-2.92034l14.60173,-0.20423l0.04085,2.92035z" data-paper-data="{&quot;origPos&quot;:null,&quot;origRot&quot;:0}"/><path d="M-9.40188,253.80897l-0.31973,-22.85927l3.02105,-0.04226l0.31973,22.85927z" data-paper-data="{&quot;origPos&quot;:null,&quot;origRot&quot;:0}"/><path d="M-15.24118,253.99138l-0.22253,-15.91085l3.02105,-0.04226l0.22255,15.91086z" data-paper-data="{&quot;origPos&quot;:null,&quot;origRot&quot;:0}"/><path d="M-15.14007,254.02017l-0.04508,-3.22246l8.66035,-0.12113l0.04507,3.22246z" data-paper-data="{&quot;origPos&quot;:null,&quot;origRot&quot;:0}"/><path d="M-20.99975,259.94398l-0.04085,-2.92035l19.83822,-0.27748l0.04085,2.92034z" data-paper-data="{&quot;origPos&quot;:null,&quot;origRot&quot;:0}"/><path d="M-3.67952,259.67149l-0.40424,-28.90136l3.02104,-0.04225l0.40423,28.90136z" data-paper-data="{&quot;origPos&quot;:null,&quot;origRot&quot;:0}"/><path d="M-21.17359,295.52256l-0.32794,-23.44619l21.483,-0.30048l0.32793,23.44619z" data-paper-data="{&quot;origPos&quot;:null,&quot;origRot&quot;:0}"/><path d="M-24.56246,293.27146l-0.30422,-21.75066l28.02861,-0.39204l0.30421,21.75067z" data-paper-data="{&quot;origPos&quot;:null,&quot;origRot&quot;:0}"/><path d="M-21.08771,289.66132l-0.21127,-15.10525l3.02106,-0.04226l0.21128,15.10524z" data-paper-data="{&quot;origPos&quot;:null,&quot;origRot&quot;:0}"/><path d="M-3.46727,289.24701l-0.21128,-15.10525l3.02104,-0.04225l0.21128,15.10524z" data-paper-data="{&quot;origPos&quot;:null,&quot;origRot&quot;:0}"/><path d="M-15.7193,289.41837l-0.21128,-15.10524l3.02105,-0.04226l0.21127,15.10525z" data-paper-data="{&quot;origPos&quot;:null,&quot;origRot&quot;:0}"/><path d="M-8.67022,289.3198l-0.21127,-15.10525l3.02104,-0.04226l0.21127,15.10525z" data-paper-data="{&quot;origPos&quot;:null,&quot;origRot&quot;:0}"/><path d="M-14.56829,277.69621l-0.04694,-3.35672l7.55263,-0.10564l0.04695,3.35672z" data-paper-data="{&quot;origPos&quot;:null,&quot;origRot&quot;:0}"/></g><g data-paper-data="{&quot;origPos&quot;:null}"><path d="M23.86017,302.17897l-0.83939,-109.37422l21.77683,2.05975l0.67541,106.88311z" data-paper-data="{&quot;origPos&quot;:null,&quot;origRot&quot;:0}"/><path d="M22.90296,224.33935l-0.32794,-23.44619l21.483,-0.30048l0.32793,23.44619z" data-paper-data="{&quot;origPos&quot;:null,&quot;origRot&quot;:0}"/><path d="M19.51414,222.08825l-0.30421,-21.75067l28.02861,-0.39203l0.30422,21.75067z" data-paper-data="{&quot;origPos&quot;:null,&quot;origRot&quot;:0}"/><path d="M22.98884,218.47813l-0.21127,-15.10523l3.02105,-0.04226l0.21128,15.10524z" data-paper-data="{&quot;origPos&quot;:null,&quot;origRot&quot;:0}"/><path d="M40.60933,218.06381l-0.21127,-15.10525l3.02105,-0.04226l0.21127,15.10524z" data-paper-data="{&quot;origPos&quot;:null,&quot;origRot&quot;:0}"/><path d="M28.35728,218.23517l-0.21127,-15.10525l3.02104,-0.04225l0.21127,15.10525z" data-paper-data="{&quot;origPos&quot;:null,&quot;origRot&quot;:0}"/><path d="M35.4064,218.13655l-0.21126,-15.10524l3.02104,-0.04225l0.21127,15.10524z" data-paper-data="{&quot;origPos&quot;:null,&quot;origRot&quot;:0}"/><path d="M29.16675,218.10075l-0.04694,-3.35672l7.55262,-0.10564l0.04695,3.35672z" data-paper-data="{&quot;origPos&quot;:null,&quot;origRot&quot;:0}"/><path d="M29.50828,206.51303l-0.04695,-3.35672l7.55262,-0.10565l0.04694,3.35673z" data-paper-data="{&quot;origPos&quot;:null,&quot;origRot&quot;:0}"/><path d="M23.18695,268.76568l-0.52701,-37.67919l21.81867,-0.30517l0.527,37.67919z" data-paper-data="{&quot;origPos&quot;:null,&quot;origRot&quot;:0}"/><path d="M19.79704,266.43773l-0.52994,-37.88897l28.02861,-0.39204l0.52994,37.88898z" data-paper-data="{&quot;origPos&quot;:null,&quot;origRot&quot;:0}"/><path d="M23.99574,260.57915l-0.38734,-27.69293l3.02104,-0.04224l0.38734,27.69293z" data-paper-data="{&quot;origPos&quot;:null,&quot;origRot&quot;:0}"/><path d="M23.98448,259.77355l-0.38733,-27.69293l3.02104,-0.04225l0.38733,27.69293z" data-paper-data="{&quot;origPos&quot;:null,&quot;origRot&quot;:0}"/><path d="M23.7391,235.02975l-0.04085,-2.92034l14.60172,-0.20422l0.04085,2.92035z" data-paper-data="{&quot;origPos&quot;:null,&quot;origRot&quot;:0}"/><path d="M35.60106,254.97788l-0.31972,-22.85928l3.02105,-0.04225l0.31973,22.85927z" data-paper-data="{&quot;origPos&quot;:null,&quot;origRot&quot;:0}"/><path d="M29.76176,255.16029l-0.22254,-15.91085l3.02105,-0.04225l0.22255,15.91086z" data-paper-data="{&quot;origPos&quot;:null,&quot;origRot&quot;:0}"/><path d="M29.86289,255.18908l-0.04507,-3.22246l8.66035,-0.12113l0.04507,3.22245z" data-paper-data="{&quot;origPos&quot;:null,&quot;origRot&quot;:0}"/><path d="M24.00319,261.11289l-0.04084,-2.92035l19.83821,-0.27748l0.04085,2.92035z" data-paper-data="{&quot;origPos&quot;:null,&quot;origRot&quot;:0}"/><path d="M41.32344,260.8404l-0.40425,-28.90136l3.02105,-0.04226l0.40423,28.90136z" data-paper-data="{&quot;origPos&quot;:null,&quot;origRot&quot;:0}"/><path d="M23.82935,296.69147l-0.32793,-23.44619l21.483,-0.30048l0.32793,23.44619z" data-paper-data="{&quot;origPos&quot;:null,&quot;origRot&quot;:0}"/><path d="M20.44047,294.44037l-0.30422,-21.75066l28.02861,-0.39204l0.30421,21.75067z" data-paper-data="{&quot;origPos&quot;:null,&quot;origRot&quot;:0}"/><path d="M23.91523,290.83024l-0.21126,-15.10525l3.02105,-0.04226l0.21128,15.10525z" data-paper-data="{&quot;origPos&quot;:null,&quot;origRot&quot;:0}"/><path d="M41.53569,290.41592l-0.21128,-15.10525l3.02105,-0.04224l0.21128,15.10524z" data-paper-data="{&quot;origPos&quot;:null,&quot;origRot&quot;:0}"/><path d="M29.28365,290.58727l-0.21128,-15.10525l3.02105,-0.04226l0.21127,15.10525z" data-paper-data="{&quot;origPos&quot;:null,&quot;origRot&quot;:0}"/><path d="M36.33277,290.4887l-0.21127,-15.10525l3.02104,-0.04225l0.21127,15.10524z" data-paper-data="{&quot;origPos&quot;:null,&quot;origRot&quot;:0}"/><path d="M30.43466,278.86512l-0.04694,-3.35671l7.55263,-0.10564l0.04695,3.35673z" data-paper-data="{&quot;origPos&quot;:null,&quot;origRot&quot;:0}"/></g><g data-paper-data="{&quot;origPos&quot;:null}"><path d="M70.03203,299.84116l-0.83939,-109.37423l21.77683,2.05975l0.67541,106.88311z" data-paper-data="{&quot;origPos&quot;:null,&quot;origRot&quot;:0}"/><path d="M69.07485,222.00153l-0.32794,-23.44618l21.483,-0.30048l0.32793,23.44619z" data-paper-data="{&quot;origPos&quot;:null,&quot;origRot&quot;:0}"/><path d="M65.686,219.75044l-0.30421,-21.75067l28.02861,-0.39203l0.30422,21.75066z" data-paper-data="{&quot;origPos&quot;:null,&quot;origRot&quot;:0}"/><path d="M69.16074,216.14031l-0.21127,-15.10523l3.02106,-0.04226l0.21128,15.10524z" data-paper-data="{&quot;origPos&quot;:null,&quot;origRot&quot;:0}"/><path d="M86.78118,215.72599l-0.21127,-15.10525l3.02104,-0.04225l0.21127,15.10524z" data-paper-data="{&quot;origPos&quot;:null,&quot;origRot&quot;:0}"/><path d="M74.52915,215.89735l-0.21127,-15.10524l3.02104,-0.04226l0.21127,15.10525z" data-paper-data="{&quot;origPos&quot;:null,&quot;origRot&quot;:0}"/><path d="M81.57827,215.79874l-0.21127,-15.10524l3.02104,-0.04225l0.21127,15.10524z" data-paper-data="{&quot;origPos&quot;:null,&quot;origRot&quot;:0}"/><path d="M75.33864,215.76293l-0.04694,-3.35671l7.55262,-0.10564l0.04695,3.35672z" data-paper-data="{&quot;origPos&quot;:null,&quot;origRot&quot;:0}"/><path d="M75.68016,204.17521l-0.04695,-3.35672l7.55262,-0.10564l0.04694,3.35673z" data-paper-data="{&quot;origPos&quot;:null,&quot;origRot&quot;:0}"/><path d="M69.35882,266.42787l-0.527,-37.67919l21.81867,-0.30517l0.527,37.67919z" data-paper-data="{&quot;origPos&quot;:null,&quot;origRot&quot;:0}"/><path d="M65.96892,264.09992l-0.52994,-37.88898l28.02861,-0.39203l0.52994,37.88897z" data-paper-data="{&quot;origPos&quot;:null,&quot;origRot&quot;:0}"/><path d="M70.16762,258.24133l-0.38733,-27.69293l3.02104,-0.04225l0.38733,27.69294z" data-paper-data="{&quot;origPos&quot;:null,&quot;origRot&quot;:0}"/><path d="M70.15636,257.43573l-0.38733,-27.69293l3.02104,-0.04226l0.38733,27.69294z" data-paper-data="{&quot;origPos&quot;:null,&quot;origRot&quot;:0}"/><path d="M69.911,232.69193l-0.04086,-2.92034l14.60172,-0.20423l0.04085,2.92035z" data-paper-data="{&quot;origPos&quot;:null,&quot;origRot&quot;:0}"/><path d="M81.77293,252.64007l-0.31972,-22.85927l3.02105,-0.04225l0.31973,22.85927z" data-paper-data="{&quot;origPos&quot;:null,&quot;origRot&quot;:0}"/><path d="M75.93365,252.82248l-0.22254,-15.91085l3.02105,-0.04226l0.22254,15.91086z" data-paper-data="{&quot;origPos&quot;:null,&quot;origRot&quot;:0}"/><path d="M76.03476,252.85126l-0.04507,-3.22246l8.66034,-0.12113l0.04508,3.22246z" data-paper-data="{&quot;origPos&quot;:null,&quot;origRot&quot;:0}"/><path d="M70.17507,258.77507l-0.04085,-2.92035l19.83821,-0.27747l0.04084,2.92034z" data-paper-data="{&quot;origPos&quot;:null,&quot;origRot&quot;:0}"/><path d="M87.49533,258.50257l-0.40425,-28.90136l3.02104,-0.04226l0.40423,28.90136z" data-paper-data="{&quot;origPos&quot;:null,&quot;origRot&quot;:0}"/><path d="M70.00122,294.35364l-0.32794,-23.44619l21.483,-0.30048l0.32793,23.44619z" data-paper-data="{&quot;origPos&quot;:null,&quot;origRot&quot;:0}"/><path d="M66.61234,292.10255l-0.30422,-21.75066l28.02861,-0.39204l0.30421,21.75067z" data-paper-data="{&quot;origPos&quot;:null,&quot;origRot&quot;:0}"/><path d="M70.08712,288.49243l-0.21127,-15.10525l3.02105,-0.04226l0.21128,15.10525z" data-paper-data="{&quot;origPos&quot;:null,&quot;origRot&quot;:0}"/><path d="M87.70756,288.0781l-0.21128,-15.10525l3.02105,-0.04225l0.21128,15.10525z" data-paper-data="{&quot;origPos&quot;:null,&quot;origRot&quot;:0}"/><path d="M75.45552,288.24946l-0.21128,-15.10524l3.02105,-0.04226l0.21127,15.10524z" data-paper-data="{&quot;origPos&quot;:null,&quot;origRot&quot;:0}"/><path d="M82.50463,288.15089l-0.21127,-15.10525l3.02105,-0.04226l0.21127,15.10524z" data-paper-data="{&quot;origPos&quot;:null,&quot;origRot&quot;:0}"/><path d="M76.60655,276.52729l-0.04694,-3.35671l7.55262,-0.10564l0.04695,3.35673z" data-paper-data="{&quot;origPos&quot;:null,&quot;origRot&quot;:0}"/></g><g data-paper-data="{&quot;origPos&quot;:null}"><path d="M113.86608,300.42561l-0.8394,-109.37422l21.77683,2.05975l0.67541,106.88311z" data-paper-data="{&quot;origPos&quot;:null,&quot;origRot&quot;:0}"/><path d="M112.9089,222.58598l-0.32793,-23.44619l21.48299,-0.30048l0.32793,23.44619z" data-paper-data="{&quot;origPos&quot;:null,&quot;origRot&quot;:0}"/><path d="M109.52005,220.33489l-0.30421,-21.75067l28.02861,-0.39202l0.30422,21.75066z" data-paper-data="{&quot;origPos&quot;:null,&quot;origRot&quot;:0}"/><path d="M112.99479,216.72477l-0.21127,-15.10523l3.02106,-0.04226l0.21128,15.10525z" data-paper-data="{&quot;origPos&quot;:null,&quot;origRot&quot;:0}"/><path d="M130.61524,216.31044l-0.21127,-15.10525l3.02104,-0.04225l0.21127,15.10524z" data-paper-data="{&quot;origPos&quot;:null,&quot;origRot&quot;:0}"/><path d="M118.3632,216.48181l-0.21127,-15.10524l3.02104,-0.04226l0.21127,15.10526z" data-paper-data="{&quot;origPos&quot;:null,&quot;origRot&quot;:0}"/><path d="M125.41232,216.38319l-0.21127,-15.10525l3.02104,-0.04225l0.21127,15.10524z" data-paper-data="{&quot;origPos&quot;:null,&quot;origRot&quot;:0}"/><path d="M119.17269,216.34739l-0.04694,-3.35671l7.55262,-0.10565l0.04695,3.35672z" data-paper-data="{&quot;origPos&quot;:null,&quot;origRot&quot;:0}"/><path d="M119.51421,204.75966l-0.04695,-3.35672l7.55262,-0.10564l0.04694,3.35672z" data-paper-data="{&quot;origPos&quot;:null,&quot;origRot&quot;:0}"/><path d="M113.19287,267.01232l-0.527,-37.67919l21.81867,-0.30517l0.52701,37.67919z" data-paper-data="{&quot;origPos&quot;:null,&quot;origRot&quot;:0}"/><path d="M109.80296,264.68437l-0.52994,-37.88898l28.02861,-0.39203l0.52994,37.88897z" data-paper-data="{&quot;origPos&quot;:null,&quot;origRot&quot;:0}"/><path d="M114.00167,258.82578l-0.38733,-27.69293l3.02104,-0.04225l0.38734,27.69294z" data-paper-data="{&quot;origPos&quot;:null,&quot;origRot&quot;:0}"/><path d="M113.9904,258.02018l-0.38733,-27.69293l3.02104,-0.04225l0.38734,27.69294z" data-paper-data="{&quot;origPos&quot;:null,&quot;origRot&quot;:0}"/><path d="M113.74504,233.27638l-0.04086,-2.92034l14.60173,-0.20423l0.04085,2.92035z" data-paper-data="{&quot;origPos&quot;:null,&quot;origRot&quot;:0}"/><path d="M125.60698,253.22452l-0.31973,-22.85927l3.02105,-0.04225l0.31973,22.85928z" data-paper-data="{&quot;origPos&quot;:null,&quot;origRot&quot;:0}"/><path d="M119.76769,253.40692l-0.22254,-15.91086l3.02105,-0.04225l0.22255,15.91086z" data-paper-data="{&quot;origPos&quot;:null,&quot;origRot&quot;:0}"/><path d="M119.86881,253.43571l-0.04507,-3.22246l8.66034,-0.12113l0.04508,3.22246z" data-paper-data="{&quot;origPos&quot;:null,&quot;origRot&quot;:0}"/><path d="M114.00911,259.35953l-0.04085,-2.92035l19.83821,-0.27747l0.04085,2.92034z" data-paper-data="{&quot;origPos&quot;:null,&quot;origRot&quot;:0}"/><path d="M131.32937,259.08704l-0.40424,-28.90136l3.02104,-0.04226l0.40423,28.90136z" data-paper-data="{&quot;origPos&quot;:null,&quot;origRot&quot;:0}"/><path d="M113.83527,294.93811l-0.32794,-23.44619l21.483,-0.30048l0.32793,23.44619z" data-paper-data="{&quot;origPos&quot;:null,&quot;origRot&quot;:0}"/><path d="M110.44639,292.68701l-0.30422,-21.75066l28.02861,-0.39204l0.30421,21.75067z" data-paper-data="{&quot;origPos&quot;:null,&quot;origRot&quot;:0}"/><path d="M113.92117,289.07687l-0.21127,-15.10525l3.02105,-0.04226l0.21128,15.10524z" data-paper-data="{&quot;origPos&quot;:null,&quot;origRot&quot;:0}"/><path d="M131.5416,288.66255l-0.21128,-15.10525l3.02105,-0.04225l0.21128,15.10525z" data-paper-data="{&quot;origPos&quot;:null,&quot;origRot&quot;:0}"/><path d="M119.28957,288.83392l-0.21128,-15.10524l3.02105,-0.04226l0.21127,15.10524z" data-paper-data="{&quot;origPos&quot;:null,&quot;origRot&quot;:0}"/><path d="M126.33869,288.73534l-0.21127,-15.10525l3.02105,-0.04226l0.21126,15.10525z" data-paper-data="{&quot;origPos&quot;:null,&quot;origRot&quot;:0}"/><path d="M120.4406,277.11176l-0.04694,-3.35671l7.55262,-0.10564l0.04695,3.35672z" data-paper-data="{&quot;origPos&quot;:null,&quot;origRot&quot;:0}"/></g><g data-paper-data="{&quot;origPos&quot;:null}"><path d="M-24.77199,195.00242v-20.45589h163.19257v20.45589z" data-paper-data="{&quot;origPos&quot;:null}"/><path d="M-24.77199,188.57343v-14.02689h163.19257v14.02689z" data-paper-data="{&quot;origPos&quot;:null}"/><path d="M-24.77199,184.48225v-9.93572h163.19257v9.93572z" data-paper-data="{&quot;origPos&quot;:null}"/><path d="M81.40797,179.98878v-3.87367h57.35624v3.87367z" data-paper-data="{&quot;origPos&quot;:null}"/><path d="M45.70959,179.98878v-3.87367h38.41425v3.87367z" data-paper-data="{&quot;origPos&quot;:null}"/><path d="M9.70032,180.03611v-3.87367h36.90379v3.87367z" data-paper-data="{&quot;origPos&quot;:null}"/></g><path d="M-25.16967,181.20501v-3.87367h31.09827v3.87367z" data-paper-data="{&quot;origPos&quot;:null}"/></g><path d="M433.26291,324.7351c-4.51948,22.33949 -4.36743,31.14933 -15.92781,48.31037c-27.00192,35.57173 -52.5423,50.78461 -97.34611,53.42123c-18.25796,-0.85233 -57.55924,-4.71112 -91.0021,-46.4626c-28.35824,-35.40361 -19.52961,-87.468 -19.52961,-87.468c0,0 18.51315,-91.93718 110.4411,-92.56363c66.86037,1.71641 118.90411,52.808 113.36456,124.76264z" data-paper-data="{&quot;origPos&quot;:null,&quot;origRot&quot;:0}" fill="url(#color-1)" stroke="none" stroke-width="0" stroke-linecap="butt" stroke-miterlimit="10"/><g data-paper-data="{&quot;origPos&quot;:null}" fill="#0f0f0f" stroke="none" stroke-width="0" stroke-linecap="butt" stroke-miterlimit="10"><g data-paper-data="{&quot;origPos&quot;:null}"><path d="M116.85723,301.01006l-0.83939,-109.37422l21.77683,2.05975l0.67541,106.88311z" data-paper-data="{&quot;origPos&quot;:null,&quot;origRot&quot;:0}"/><path d="M115.90002,223.17043l-0.32794,-23.44618l21.483,-0.30048l0.32793,23.44619z" data-paper-data="{&quot;origPos&quot;:null,&quot;origRot&quot;:0}"/><path d="M112.51119,220.91934l-0.30421,-21.75067l28.02861,-0.39203l0.30422,21.75066z" data-paper-data="{&quot;origPos&quot;:null,&quot;origRot&quot;:0}"/><path d="M115.9859,217.30922l-0.21127,-15.10524l3.02105,-0.04226l0.21128,15.10524z" data-paper-data="{&quot;origPos&quot;:null,&quot;origRot&quot;:0}"/><path d="M133.60634,216.89489l-0.21127,-15.10525l3.02104,-0.04226l0.21127,15.10524z" data-paper-data="{&quot;origPos&quot;:null,&quot;origRot&quot;:0}"/><path d="M121.35432,217.06626l-0.21127,-15.10524l3.02104,-0.04226l0.21127,15.10525z" data-paper-data="{&quot;origPos&quot;:null,&quot;origRot&quot;:0}"/><path d="M128.40345,216.96764l-0.21127,-15.10524l3.02104,-0.04226l0.21127,15.10524z" data-paper-data="{&quot;origPos&quot;:null,&quot;origRot&quot;:0}"/><path d="M122.1638,216.93184l-0.04694,-3.35671l7.55262,-0.10564l0.04695,3.35672z" data-paper-data="{&quot;origPos&quot;:null,&quot;origRot&quot;:0}"/><path d="M122.50532,205.34411l-0.04695,-3.35672l7.55262,-0.10564l0.04694,3.35673z" data-paper-data="{&quot;origPos&quot;:null,&quot;origRot&quot;:0}"/><path d="M116.18399,267.59677l-0.527,-37.67919l21.81867,-0.30517l0.527,37.67919z" data-paper-data="{&quot;origPos&quot;:null,&quot;origRot&quot;:0}"/><path d="M112.79409,265.26882l-0.52994,-37.88898l28.02861,-0.39204l0.52994,37.88898z" data-paper-data="{&quot;origPos&quot;:null,&quot;origRot&quot;:0}"/><path d="M116.99278,259.41024l-0.38733,-27.69293l3.02104,-0.04225l0.38733,27.69294z" data-paper-data="{&quot;origPos&quot;:null,&quot;origRot&quot;:0}"/><path d="M116.98153,258.60463l-0.38733,-27.69293l3.02104,-0.04226l0.38733,27.69294z" data-paper-data="{&quot;origPos&quot;:null,&quot;origRot&quot;:0}"/><path d="M116.73615,233.86083l-0.04086,-2.92034l14.60173,-0.20423l0.04085,2.92035z" data-paper-data="{&quot;origPos&quot;:null,&quot;origRot&quot;:0}"/><path d="M128.59812,253.80896l-0.31973,-22.85927l3.02105,-0.04226l0.31973,22.85927z" data-paper-data="{&quot;origPos&quot;:null,&quot;origRot&quot;:0}"/><path d="M122.75882,253.99137l-0.22254,-15.91085l3.02105,-0.04226l0.22255,15.91086z" data-paper-data="{&quot;origPos&quot;:null,&quot;origRot&quot;:0}"/><path d="M122.85993,254.02017l-0.04508,-3.22246l8.66034,-0.12113l0.04508,3.22246z" data-paper-data="{&quot;origPos&quot;:null,&quot;origRot&quot;:0}"/><path d="M117.00025,259.94398l-0.04085,-2.92035l19.83821,-0.27748l0.04085,2.92035z" data-paper-data="{&quot;origPos&quot;:null,&quot;origRot&quot;:0}"/><path d="M134.32047,259.67149l-0.40424,-28.90136l3.02104,-0.04226l0.40423,28.90136z" data-paper-data="{&quot;origPos&quot;:null,&quot;origRot&quot;:0}"/><path d="M116.8264,295.52256l-0.32794,-23.44619l21.48301,-0.30048l0.32793,23.44619z" data-paper-data="{&quot;origPos&quot;:null,&quot;origRot&quot;:0}"/><path d="M113.43754,293.27146l-0.30422,-21.75066l28.02861,-0.39204l0.30421,21.75067z" data-paper-data="{&quot;origPos&quot;:null,&quot;origRot&quot;:0}"/><path d="M116.9123,289.66132l-0.21127,-15.10525l3.02105,-0.04226l0.21128,15.10524z" data-paper-data="{&quot;origPos&quot;:null,&quot;origRot&quot;:0}"/><path d="M134.53273,289.247l-0.21128,-15.10525l3.02104,-0.04225l0.21128,15.10524z" data-paper-data="{&quot;origPos&quot;:null,&quot;origRot&quot;:0}"/><path d="M122.28071,289.41837l-0.21128,-15.10524l3.02105,-0.04226l0.21127,15.10524z" data-paper-data="{&quot;origPos&quot;:null,&quot;origRot&quot;:0}"/><path d="M129.32978,289.31979l-0.21127,-15.10525l3.02104,-0.04226l0.21127,15.10524z" data-paper-data="{&quot;origPos&quot;:null,&quot;origRot&quot;:0}"/><path d="M123.43172,277.69621l-0.04694,-3.35671l7.55262,-0.10564l0.04695,3.35673z" data-paper-data="{&quot;origPos&quot;:null,&quot;origRot&quot;:0}"/></g><g data-paper-data="{&quot;origPos&quot;:null}"><path d="M161.86017,302.17897l-0.83939,-109.37422l21.77683,2.05975l0.67541,106.88311z" data-paper-data="{&quot;origPos&quot;:null,&quot;origRot&quot;:0}"/><path d="M160.90298,224.33934l-0.32794,-23.44618l21.483,-0.30048l0.32793,23.44619z" data-paper-data="{&quot;origPos&quot;:null,&quot;origRot&quot;:0}"/><path d="M157.51414,222.08825l-0.30421,-21.75067l28.02861,-0.39203l0.30422,21.75066z" data-paper-data="{&quot;origPos&quot;:null,&quot;origRot&quot;:0}"/><path d="M160.98884,218.47813l-0.21127,-15.10524l3.02105,-0.04226l0.21128,15.10524z" data-paper-data="{&quot;origPos&quot;:null,&quot;origRot&quot;:0}"/><path d="M178.60933,218.0638l-0.21127,-15.10525l3.02104,-0.04226l0.21127,15.10524z" data-paper-data="{&quot;origPos&quot;:null,&quot;origRot&quot;:0}"/><path d="M166.35727,218.23517l-0.21127,-15.10524l3.02104,-0.04226l0.21127,15.10525z" data-paper-data="{&quot;origPos&quot;:null,&quot;origRot&quot;:0}"/><path d="M173.4064,218.13655l-0.21127,-15.10524l3.02104,-0.04226l0.21127,15.10524z" data-paper-data="{&quot;origPos&quot;:null,&quot;origRot&quot;:0}"/><path d="M167.16676,218.10075l-0.04694,-3.35671l7.55262,-0.10564l0.04695,3.35672z" data-paper-data="{&quot;origPos&quot;:null,&quot;origRot&quot;:0}"/><path d="M167.50829,206.51302l-0.04695,-3.35672l7.55262,-0.10564l0.04694,3.35673z" data-paper-data="{&quot;origPos&quot;:null,&quot;origRot&quot;:0}"/><path d="M161.18694,268.76568l-0.527,-37.67919l21.81867,-0.30517l0.527,37.67919z" data-paper-data="{&quot;origPos&quot;:null,&quot;origRot&quot;:0}"/><path d="M157.79705,266.43773l-0.52994,-37.88898l28.02861,-0.39204l0.52994,37.88898z" data-paper-data="{&quot;origPos&quot;:null,&quot;origRot&quot;:0}"/><path d="M161.99574,260.57915l-0.38733,-27.69293l3.02104,-0.04225l0.38733,27.69294z" data-paper-data="{&quot;origPos&quot;:null,&quot;origRot&quot;:0}"/><path d="M161.98448,259.77353l-0.38733,-27.69293l3.02104,-0.04226l0.38733,27.69294z" data-paper-data="{&quot;origPos&quot;:null,&quot;origRot&quot;:0}"/><path d="M161.7391,235.02974l-0.04086,-2.92034l14.60173,-0.20423l0.04085,2.92035z" data-paper-data="{&quot;origPos&quot;:null,&quot;origRot&quot;:0}"/><path d="M173.60106,254.97787l-0.31973,-22.85927l3.02105,-0.04226l0.31973,22.85927z" data-paper-data="{&quot;origPos&quot;:null,&quot;origRot&quot;:0}"/><path d="M167.76177,255.16028l-0.22254,-15.91085l3.02105,-0.04226l0.22255,15.91086z" data-paper-data="{&quot;origPos&quot;:null,&quot;origRot&quot;:0}"/><path d="M167.86289,255.18908l-0.04508,-3.22246l8.66034,-0.12113l0.04508,3.22246z" data-paper-data="{&quot;origPos&quot;:null,&quot;origRot&quot;:0}"/><path d="M162.00319,261.11289l-0.04085,-2.92035l19.83821,-0.27748l0.04085,2.92035z" data-paper-data="{&quot;origPos&quot;:null,&quot;origRot&quot;:0}"/><path d="M179.32344,260.8404l-0.40424,-28.90136l3.02104,-0.04226l0.40423,28.90136z" data-paper-data="{&quot;origPos&quot;:null,&quot;origRot&quot;:0}"/><path d="M161.82934,296.69147l-0.32794,-23.44619l21.48301,-0.30048l0.32793,23.44619z" data-paper-data="{&quot;origPos&quot;:null,&quot;origRot&quot;:0}"/><path d="M158.44046,294.44037l-0.30422,-21.75066l28.02861,-0.39204l0.30421,21.75067z" data-paper-data="{&quot;origPos&quot;:null,&quot;origRot&quot;:0}"/><path d="M161.91524,290.83024l-0.21127,-15.10525l3.02105,-0.04226l0.21128,15.10524z" data-paper-data="{&quot;origPos&quot;:null,&quot;origRot&quot;:0}"/><path d="M179.53569,290.41591l-0.21128,-15.10525l3.02104,-0.04225l0.21128,15.10524z" data-paper-data="{&quot;origPos&quot;:null,&quot;origRot&quot;:0}"/><path d="M167.28365,290.58727l-0.21128,-15.10524l3.02105,-0.04226l0.21127,15.10524z" data-paper-data="{&quot;origPos&quot;:null,&quot;origRot&quot;:0}"/><path d="M174.33277,290.4887l-0.21127,-15.10525l3.02104,-0.04226l0.21127,15.10524z" data-paper-data="{&quot;origPos&quot;:null,&quot;origRot&quot;:0}"/><path d="M168.43468,278.86512l-0.04694,-3.35671l7.55262,-0.10564l0.04695,3.35673z" data-paper-data="{&quot;origPos&quot;:null,&quot;origRot&quot;:0}"/></g><g data-paper-data="{&quot;origPos&quot;:null}"><path d="M208.03204,299.84116l-0.83939,-109.37422l21.77683,2.05975l0.67541,106.88311z" data-paper-data="{&quot;origPos&quot;:null,&quot;origRot&quot;:0}"/><path d="M207.07485,222.00153l-0.32794,-23.44618l21.483,-0.30048l0.32793,23.44619z" data-paper-data="{&quot;origPos&quot;:null,&quot;origRot&quot;:0}"/><path d="M203.686,219.75043l-0.30421,-21.75067l28.02861,-0.39203l0.30422,21.75066z" data-paper-data="{&quot;origPos&quot;:null,&quot;origRot&quot;:0}"/><path d="M207.16074,216.14031l-0.21127,-15.10524l3.02105,-0.04226l0.21128,15.10524z" data-paper-data="{&quot;origPos&quot;:null,&quot;origRot&quot;:0}"/><path d="M224.78118,215.72599l-0.21127,-15.10525l3.02104,-0.04226l0.21127,15.10524z" data-paper-data="{&quot;origPos&quot;:null,&quot;origRot&quot;:0}"/><path d="M212.52915,215.89735l-0.21127,-15.10524l3.02104,-0.04226l0.21127,15.10525z" data-paper-data="{&quot;origPos&quot;:null,&quot;origRot&quot;:0}"/><path d="M219.57826,215.79873l-0.21127,-15.10524l3.02104,-0.04226l0.21127,15.10524z" data-paper-data="{&quot;origPos&quot;:null,&quot;origRot&quot;:0}"/><path d="M213.33864,215.76293l-0.04694,-3.35671l7.55262,-0.10564l0.04695,3.35672z" data-paper-data="{&quot;origPos&quot;:null,&quot;origRot&quot;:0}"/><path d="M213.68016,204.17521l-0.04695,-3.35672l7.55262,-0.10564l0.04694,3.35673z" data-paper-data="{&quot;origPos&quot;:null,&quot;origRot&quot;:0}"/><path d="M207.35883,266.42787l-0.527,-37.67919l21.81867,-0.30517l0.527,37.67919z" data-paper-data="{&quot;origPos&quot;:null,&quot;origRot&quot;:0}"/><path d="M203.96891,264.0999l-0.52994,-37.88898l28.02861,-0.39204l0.52994,37.88898z" data-paper-data="{&quot;origPos&quot;:null,&quot;origRot&quot;:0}"/><path d="M208.16762,258.24133l-0.38733,-27.69293l3.02104,-0.04225l0.38733,27.69294z" data-paper-data="{&quot;origPos&quot;:null,&quot;origRot&quot;:0}"/><path d="M208.15636,257.43572l-0.38733,-27.69293l3.02104,-0.04226l0.38733,27.69294z" data-paper-data="{&quot;origPos&quot;:null,&quot;origRot&quot;:0}"/><path d="M207.911,232.69192l-0.04086,-2.92034l14.60173,-0.20423l0.04085,2.92035z" data-paper-data="{&quot;origPos&quot;:null,&quot;origRot&quot;:0}"/><path d="M219.77294,252.64006l-0.31973,-22.85927l3.02105,-0.04226l0.31973,22.85927z" data-paper-data="{&quot;origPos&quot;:null,&quot;origRot&quot;:0}"/><path d="M213.93365,252.82247l-0.22254,-15.91085l3.02105,-0.04226l0.22255,15.91086z" data-paper-data="{&quot;origPos&quot;:null,&quot;origRot&quot;:0}"/><path d="M214.03476,252.85126l-0.04508,-3.22246l8.66034,-0.12113l0.04508,3.22246z" data-paper-data="{&quot;origPos&quot;:null,&quot;origRot&quot;:0}"/><path d="M208.17508,258.77507l-0.04085,-2.92035l19.83821,-0.27748l0.04085,2.92035z" data-paper-data="{&quot;origPos&quot;:null,&quot;origRot&quot;:0}"/><path d="M225.49532,258.50257l-0.40424,-28.90136l3.02104,-0.04226l0.40423,28.90136z" data-paper-data="{&quot;origPos&quot;:null,&quot;origRot&quot;:0}"/><path d="M208.00122,294.35364l-0.32794,-23.44619l21.48301,-0.30048l0.32793,23.44619z" data-paper-data="{&quot;origPos&quot;:null,&quot;origRot&quot;:0}"/><path d="M204.61234,292.10255l-0.30422,-21.75066l28.02861,-0.39204l0.30421,21.75067z" data-paper-data="{&quot;origPos&quot;:null,&quot;origRot&quot;:0}"/><path d="M208.08712,288.49243l-0.21127,-15.10525l3.02105,-0.04226l0.21128,15.10524z" data-paper-data="{&quot;origPos&quot;:null,&quot;origRot&quot;:0}"/><path d="M225.70756,288.0781l-0.21128,-15.10525l3.02104,-0.04225l0.21128,15.10524z" data-paper-data="{&quot;origPos&quot;:null,&quot;origRot&quot;:0}"/><path d="M213.45552,288.24946l-0.21128,-15.10524l3.02105,-0.04226l0.21127,15.10524z" data-paper-data="{&quot;origPos&quot;:null,&quot;origRot&quot;:0}"/><path d="M220.50463,288.15088l-0.21127,-15.10525l3.02104,-0.04226l0.21127,15.10524z" data-paper-data="{&quot;origPos&quot;:null,&quot;origRot&quot;:0}"/><path d="M214.60655,276.52729l-0.04694,-3.35671l7.55262,-0.10564l0.04695,3.35673z" data-paper-data="{&quot;origPos&quot;:null,&quot;origRot&quot;:0}"/></g><g data-paper-data="{&quot;origPos&quot;:null}"><path d="M251.86608,300.42561l-0.83939,-109.37422l21.77683,2.05975l0.67541,106.88311z" data-paper-data="{&quot;origPos&quot;:null,&quot;origRot&quot;:0}"/><path d="M250.9089,222.58598l-0.32794,-23.44618l21.483,-0.30048l0.32793,23.44619z" data-paper-data="{&quot;origPos&quot;:null,&quot;origRot&quot;:0}"/><path d="M247.52006,220.33489l-0.30421,-21.75067l28.02861,-0.39203l0.30422,21.75066z" data-paper-data="{&quot;origPos&quot;:null,&quot;origRot&quot;:0}"/><path d="M250.99479,216.72476l-0.21127,-15.10524l3.02105,-0.04226l0.21128,15.10524z" data-paper-data="{&quot;origPos&quot;:null,&quot;origRot&quot;:0}"/><path d="M268.61525,216.31044l-0.21127,-15.10525l3.02104,-0.04226l0.21127,15.10524z" data-paper-data="{&quot;origPos&quot;:null,&quot;origRot&quot;:0}"/><path d="M256.3632,216.48181l-0.21127,-15.10524l3.02104,-0.04226l0.21127,15.10525z" data-paper-data="{&quot;origPos&quot;:null,&quot;origRot&quot;:0}"/><path d="M263.41231,216.38319l-0.21127,-15.10524l3.02104,-0.04226l0.21127,15.10524z" data-paper-data="{&quot;origPos&quot;:null,&quot;origRot&quot;:0}"/><path d="M257.17269,216.34738l-0.04694,-3.35671l7.55262,-0.10564l0.04695,3.35672z" data-paper-data="{&quot;origPos&quot;:null,&quot;origRot&quot;:0}"/><path d="M257.51421,204.75966l-0.04695,-3.35672l7.55262,-0.10564l0.04694,3.35673z" data-paper-data="{&quot;origPos&quot;:null,&quot;origRot&quot;:0}"/><path d="M251.19288,267.01232l-0.527,-37.67919l21.81867,-0.30517l0.527,37.67919z" data-paper-data="{&quot;origPos&quot;:null,&quot;origRot&quot;:0}"/><path d="M247.80296,264.68437l-0.52994,-37.88898l28.02861,-0.39204l0.52994,37.88898z" data-paper-data="{&quot;origPos&quot;:null,&quot;origRot&quot;:0}"/><path d="M252.00167,258.82578l-0.38733,-27.69293l3.02104,-0.04225l0.38733,27.69294z" data-paper-data="{&quot;origPos&quot;:null,&quot;origRot&quot;:0}"/><path d="M251.9904,258.02018l-0.38733,-27.69293l3.02104,-0.04226l0.38733,27.69294z" data-paper-data="{&quot;origPos&quot;:null,&quot;origRot&quot;:0}"/><path d="M251.74504,233.27638l-0.04086,-2.92034l14.60173,-0.20423l0.04085,2.92035z" data-paper-data="{&quot;origPos&quot;:null,&quot;origRot&quot;:0}"/><path d="M263.60699,253.22452l-0.31973,-22.85927l3.02105,-0.04226l0.31973,22.85927z" data-paper-data="{&quot;origPos&quot;:null,&quot;origRot&quot;:0}"/><path d="M257.76768,253.40692l-0.22254,-15.91085l3.02105,-0.04226l0.22255,15.91086z" data-paper-data="{&quot;origPos&quot;:null,&quot;origRot&quot;:0}"/><path d="M257.86881,253.43572l-0.04508,-3.22246l8.66034,-0.12113l0.04508,3.22246z" data-paper-data="{&quot;origPos&quot;:null,&quot;origRot&quot;:0}"/><path d="M252.00912,259.35952l-0.04085,-2.92035l19.83821,-0.27748l0.04085,2.92035z" data-paper-data="{&quot;origPos&quot;:null,&quot;origRot&quot;:0}"/><path d="M269.32937,259.08703l-0.40424,-28.90136l3.02104,-0.04226l0.40423,28.90136z" data-paper-data="{&quot;origPos&quot;:null,&quot;origRot&quot;:0}"/><path d="M251.83527,294.93811l-0.32794,-23.44619l21.48301,-0.30048l0.32793,23.44619z" data-paper-data="{&quot;origPos&quot;:null,&quot;origRot&quot;:0}"/><path d="M248.44639,292.68701l-0.30422,-21.75066l28.02861,-0.39204l0.30421,21.75067z" data-paper-data="{&quot;origPos&quot;:null,&quot;origRot&quot;:0}"/><path d="M251.92117,289.07687l-0.21127,-15.10525l3.02105,-0.04226l0.21128,15.10524z" data-paper-data="{&quot;origPos&quot;:null,&quot;origRot&quot;:0}"/><path d="M269.54159,288.66255l-0.21128,-15.10525l3.02104,-0.04225l0.21128,15.10524z" data-paper-data="{&quot;origPos&quot;:null,&quot;origRot&quot;:0}"/><path d="M257.28957,288.83392l-0.21128,-15.10524l3.02105,-0.04226l0.21127,15.10524z" data-paper-data="{&quot;origPos&quot;:null,&quot;origRot&quot;:0}"/><path d="M264.33868,288.73534l-0.21127,-15.10525l3.02104,-0.04226l0.21127,15.10524z" data-paper-data="{&quot;origPos&quot;:null,&quot;origRot&quot;:0}"/><path d="M258.44059,277.11175l-0.04694,-3.35671l7.55262,-0.10564l0.04695,3.35673z" data-paper-data="{&quot;origPos&quot;:null,&quot;origRot&quot;:0}"/></g><g data-paper-data="{&quot;origPos&quot;:null}"><path d="M113.22801,195.00242v-20.45589h163.19258v20.45589z" data-paper-data="{&quot;origPos&quot;:null}"/><path d="M113.22801,188.57343v-14.02689h163.19258v14.02689z" data-paper-data="{&quot;origPos&quot;:null}"/><path d="M113.22801,184.48225v-9.93572h163.19258v9.93572z" data-paper-data="{&quot;origPos&quot;:null}"/><path d="M219.40798,179.98878v-3.87367h57.35624v3.87367z" data-paper-data="{&quot;origPos&quot;:null}"/><path d="M183.70959,179.98878v-3.87367h38.41425v3.87367z" data-paper-data="{&quot;origPos&quot;:null}"/><path d="M147.70033,180.0361v-3.87367h36.90379v3.87367z" data-paper-data="{&quot;origPos&quot;:null}"/></g><path d="M112.83033,181.20501v-3.87367h31.09826v3.87367z" data-paper-data="{&quot;origPos&quot;:null}"/></g><g data-paper-data="{&quot;origPos&quot;:null}" stroke="none" stroke-width="0" stroke-linecap="butt" stroke-miterlimit="10"><path d="M469.57131,203.14385c-3.24333,9.73725 -3.6578,13.68319 -9.76452,20.72035c-14.01657,14.42032 -26.26503,19.8212 -46.43471,18.54617c-8.11381,-1.38078 -25.46841,-5.25764 -38.12953,-25.75002c-10.73613,-17.37674 -3.93905,-40.16372 -3.93905,-40.16372c0,0 13.30908,-40.078 54.43104,-35.32397c29.7896,4.42846 50.25301,30.11407 43.83679,61.97121z" data-paper-data="{&quot;origPos&quot;:null,&quot;origRot&quot;:0}" fill="url(#color-2)"/><path d="M460.07927,202.15246c-2.69619,8.09463 -3.04074,11.3749 -8.11728,17.22493c-11.65204,11.98768 -21.83424,16.47744 -38.60139,15.41751c-6.74505,-1.14784 -21.17201,-4.3707 -31.69726,-21.4061c-8.925,-14.44536 -3.27456,-33.38828 -3.27456,-33.38828c0,0 11.06389,-33.31702 45.24878,-29.36497c24.76421,3.68141 41.77555,25.03396 36.44173,51.51694z" data-paper-data="{&quot;origPos&quot;:null,&quot;origRot&quot;:0}" fill="url(#color-3)"/><path d="M449.1429,198.68823c-2.01754,6.05713 -2.27535,8.51173 -6.07409,12.88925c-8.71911,8.97028 -16.33837,12.32993 -28.88506,11.53678c-5.04726,-0.85892 -15.84283,-3.27056 -23.71877,-16.01801c-6.67849,-10.80933 -2.45032,-24.98414 -2.45032,-24.98414c0,0 8.27901,-24.93082 33.85924,-21.97354c18.53084,2.75476 31.26025,18.73268 27.269,38.54966z" data-paper-data="{&quot;origPos&quot;:null,&quot;origRot&quot;:0}" fill="url(#color-4)"/></g><g data-paper-data="{&quot;origPos&quot;:null}" stroke="none" stroke-width="0" stroke-linecap="butt" stroke-miterlimit="10"><path d="M201.35132,267.18914c-4.56029,22.54121 -4.40687,31.43062 -16.07165,48.74662c-27.24575,35.89296 -53.01676,51.24322 -98.22518,53.90364c-18.42283,-0.86004 -58.07902,-4.75368 -91.82388,-46.88217c-28.61431,-35.72332 -19.70596,-88.25787 -19.70596,-88.25787c0,0 18.68033,-92.7674 111.4384,-93.39951c67.46414,1.7319 119.97785,53.28488 114.38827,125.88929z" data-paper-data="{&quot;origPos&quot;:null,&quot;origRot&quot;:0}" fill="url(#color-5)"/><path d="M179.96913,267.57074c-3.791,18.73861 -3.66345,26.12841 -13.36043,40.52329c-22.64952,29.83798 -44.07308,42.59872 -81.65503,44.81034c-15.31499,-0.71495 -48.28135,-3.95175 -76.33361,-38.97336c-23.78721,-29.69696 -16.38166,-73.36916 -16.38166,-73.36916c0,0 15.52904,-77.11796 92.63925,-77.64343c56.08324,1.43974 99.73813,44.29596 95.09148,104.65233z" data-paper-data="{&quot;origPos&quot;:null,&quot;origRot&quot;:0}" fill="url(#color-6)"/><path d="M154.70066,262.84587c-2.83677,14.02193 -2.74132,19.55165 -9.99749,30.32321c-16.94842,22.32749 -32.97948,31.87623 -61.10171,33.53117c-11.46006,-0.53499 -36.1285,-2.95706 -57.11975,-29.16341c-17.79975,-22.22196 -12.25824,-54.90148 -12.25824,-54.90148c0,0 11.62024,-57.70666 69.3211,-58.09987c41.96658,1.07734 74.63313,33.14626 71.15609,78.31038z" data-paper-data="{&quot;origPos&quot;:null,&quot;origRot&quot;:0}" fill="url(#color-7)"/></g><path d="M447.51457,258.74082c0,0 0.88498,71.36644 -17.11007,85.18072c-22.3012,17.11999 -86.14405,-1.91549 -86.14405,-1.91549l-64.26038,-82.26176z" data-paper-data="{&quot;origPos&quot;:null,&quot;origRot&quot;:0}" fill="url(#color-8)" stroke="none" stroke-width="0" stroke-linecap="butt" stroke-miterlimit="10"/><path d="M450.51457,267.74082c0,0 0.88498,71.36644 -17.11007,85.18072c-22.3012,17.11999 -86.14405,-1.91549 -86.14405,-1.91549l-64.26038,-82.26176z" data-paper-data="{&quot;origPos&quot;:null,&quot;origRot&quot;:0}" fill="url(#color-9)" stroke="none" stroke-width="0" stroke-linecap="butt" stroke-miterlimit="10"/><path d="M452.51457,278.74082c0,0 0.88498,71.36644 -17.11007,85.18072c-22.3012,17.11999 -86.14405,-1.91549 -86.14405,-1.91549l-64.26038,-82.26176z" data-paper-data="{&quot;origPos&quot;:null,&quot;origRot&quot;:0}" fill="url(#color-10)" stroke="none" stroke-width="0" stroke-linecap="butt" stroke-miterlimit="10"/><path d="M-91.22248,489.43041l-1.98466,-265.94443c0,0 -21.40458,-398.94032 -10.68751,-529.90951c3.57237,-43.65641 8.56305,-24.2406 52.36537,-0.42468c29.2779,15.9188 28.67026,550.61799 53.63561,572.69366c72.53335,64.13782 117.90924,16.5451 184.47412,15.0208c54.23273,-1.2419 93.91503,-33.11916 108.52449,-28.72935c18.05221,5.42427 9.89338,88.09984 83.94582,82.52613c20.39909,-1.53538 34.29536,-6.47329 42.21042,-25.3368c13.63105,-32.48607 1.10999,-84.01842 36.25779,-86.42301c44.06457,-3.01462 49.91899,-96.85308 94.04633,-94.96829c30.3878,1.29795 12.88771,133.56981 33.16488,156.24005c40.46009,45.23506 53.19424,55.34837 113.7688,51.61291c43.34001,-2.67266 62.17298,-6.6057 88.53473,-41.11019c52.62078,-84.52228 15.97592,-124.23481 68.41164,-195.38675c52.43573,-71.15194 59.55474,130.14901 59.55474,130.14901v259.99045z" data-paper-data="{&quot;origPos&quot;:null}" fill="#000000" stroke="#000000" stroke-width="0" stroke-linecap="butt" stroke-miterlimit="10"/><path d="M73.87656,225.51615v0c2.82346,0 5.11731,2.80813 5.11731,6.26679v18.16687c0,3.45865 -2.29385,6.26679 -5.11731,6.26679v0c-2.82346,0 -5.11731,-2.80813 -5.11731,-6.26679v-18.16687c0,-3.45865 2.29385,-6.26679 5.11731,-6.26679z" data-paper-data="{&quot;origPos&quot;:null}" fill="#004cba" stroke="none" stroke-width="1" stroke-linecap="butt" stroke-miterlimit="10"/><path d="M74.57476,270.92823h0.26566c3.31561,0 6.00794,2.69063 6.00794,6.00624v16.63934c0,3.31561 -2.69233,6.00794 -6.00794,6.00794h-0.26566c-3.31561,0 -6.00624,-2.69233 -6.00624,-6.00794v-16.63934c0,-3.31561 2.69063,-6.00624 6.00624,-6.00624z" data-paper-data="{&quot;origPos&quot;:null}" fill="#ee9910" stroke="none" stroke-width="1" stroke-linecap="butt" stroke-miterlimit="10"/><path d="M118.11532,254.5307l4.30671,16.07227c0.85828,3.20151 -1.0456,6.49839 -4.24711,7.35666l-0.25714,0.06982c-3.20151,0.85828 -6.49839,-1.0456 -7.35666,-4.24881l-4.30671,-16.07227c-0.85828,-3.20151 1.0456,-6.49839 4.24711,-7.35666l0.25714,-0.06982c3.20321,-0.85657 6.50009,1.0456 7.35666,4.24881z" data-paper-data="{&quot;origPos&quot;:null}" fill="#ffa411" stroke="none" stroke-width="1" stroke-linecap="butt" stroke-miterlimit="10"/><path d="M64.24138,250.28189l0.25714,0.06982c3.20151,0.85828 5.10539,4.15515 4.24711,7.35666l-4.30671,16.07227c-0.85828,3.20321 -4.15515,5.10709 -7.35666,4.24881l-0.25714,-0.06982c-3.20151,-0.85828 -5.10539,-4.15515 -4.24711,-7.35666l4.30671,-16.07227c0.85657,-3.20321 4.15345,-5.10539 7.35666,-4.24881z" data-paper-data="{&quot;origPos&quot;:null}" fill="#ffa411" stroke="none" stroke-width="1" stroke-linecap="butt" stroke-miterlimit="10"/><path d="M100.54277,270.92823h0.26566c3.31561,0 6.00794,2.69063 6.00794,6.00624v16.63934c0,3.31561 -2.69233,6.00794 -6.00794,6.00794h-0.26566c-3.31561,0 -6.00794,-2.69233 -6.00794,-6.00794v-16.63934c0,-3.31561 2.69233,-6.00624 6.00794,-6.00624z" data-paper-data="{&quot;origPos&quot;:null}" fill="#ee9910" stroke="none" stroke-width="1" stroke-linecap="butt" stroke-miterlimit="10"/><path d="M84.09415,206.78391v0c2.82346,0 5.11731,2.80813 5.11731,6.26679v18.16687c0,3.45865 -2.29385,6.26679 -5.11731,6.26679v0c-2.82346,0 -5.11731,-2.80813 -5.11731,-6.26679v-18.16687c0,-3.45865 2.29385,-6.26679 5.11731,-6.26679z" data-paper-data="{&quot;origPos&quot;:null}" fill="#bb0000" stroke="none" stroke-width="1" stroke-linecap="butt" stroke-miterlimit="10"/><path d="M77.28243,215.29856v0c2.82346,0 5.11731,2.80813 5.11731,6.26679v18.16687c0,3.45865 -2.29385,6.26679 -5.11731,6.26679v0c-2.82346,0 -5.11731,-2.80813 -5.11731,-6.26679v-18.16687c0,-3.45865 2.29385,-6.26679 5.11731,-6.26679z" data-paper-data="{&quot;origPos&quot;:null}" fill="#bababa" stroke="none" stroke-width="1" stroke-linecap="butt" stroke-miterlimit="10"/><path d="M80.68828,206.78391v0c2.82346,0 5.11731,2.80813 5.11731,6.26679v18.16687c0,3.45865 -2.29385,6.26679 -5.11731,6.26679v0c-2.82346,0 -5.11731,-2.80813 -5.11731,-6.26679v-18.16687c0,-3.45865 2.29385,-6.26679 5.11731,-6.26679z" data-paper-data="{&quot;origPos&quot;:null}" fill="#004cba" stroke="none" stroke-width="1" stroke-linecap="butt" stroke-miterlimit="10"/><path d="M84.09415,198.26925v0c2.82346,0 5.11731,2.80813 5.11731,6.26679v18.16687c0,3.45865 -2.29385,6.26679 -5.11731,6.26679v0c-2.82346,0 -5.11731,-2.80813 -5.11731,-6.26679v-18.16687c0,-3.45865 2.29385,-6.26679 5.11731,-6.26679z" data-paper-data="{&quot;origPos&quot;:null}" fill="#bababa" stroke="none" stroke-width="1" stroke-linecap="butt" stroke-miterlimit="10"/><path d="M87.50001,223.85409v0c14.12071,0 25.58314,11.53396 25.58314,25.74322v9.91447c0,14.20756 -11.46243,25.74322 -25.58314,25.74322v0c-14.12071,0 -25.58314,-11.53566 -25.58314,-25.74322v-9.91447c0,-14.20926 11.46243,-25.74322 25.58314,-25.74322z" data-paper-data="{&quot;origPos&quot;:null}" fill="#ffa411" stroke="none" stroke-width="1" stroke-linecap="butt" stroke-miterlimit="10"/><path d="M87.50853,194v0c2.82346,0 5.11561,2.80813 5.11561,6.26679v18.16687c0,3.45865 -2.29215,6.26679 -5.11561,6.26679v0c-2.82516,0 -5.11731,-2.80813 -5.11731,-6.26679v-18.16687c0,-3.45865 2.29215,-6.26679 5.11731,-6.26679z" data-paper-data="{&quot;origPos&quot;:null}" fill="#0257d1" stroke="none" stroke-width="1" stroke-linecap="butt" stroke-miterlimit="10"/><path d="M86.42036,246.87943h19.18863c1.76424,0 3.19811,1.43217 3.19811,3.19811v0c0,1.76424 -1.43387,3.19811 -3.19811,3.19811h-19.18863c-1.76424,0 -3.19811,-1.43387 -3.19811,-3.19811v0c0,-1.76594 1.43387,-3.19811 3.19811,-3.19811z" data-paper-data="{&quot;origPos&quot;:null}" fill="#fdd497" stroke="none" stroke-width="1" stroke-linecap="butt" stroke-miterlimit="10"/><path d="M99.21278,250.07754v19.18693c0,1.76594 -1.43387,3.19811 -3.19811,3.19811v0c-1.76424,0 -3.19811,-1.43217 -3.19811,-3.19811v-19.18693c0,-1.76594 1.43387,-3.19811 3.19811,-3.19811v0c1.76424,0 3.19811,1.43217 3.19811,3.19811z" data-paper-data="{&quot;origPos&quot;:null}" fill="#fdd497" stroke="none" stroke-width="1" stroke-linecap="butt" stroke-miterlimit="10"/><path d="M92.60881,194v0c2.82346,0 5.11731,2.80813 5.11731,6.26679v18.16687c0,3.45865 -2.29385,6.26679 -5.11731,6.26679v0c-2.82346,0 -5.11731,-2.80813 -5.11731,-6.26679v-18.16687c0,-3.45865 2.29385,-6.26679 5.11731,-6.26679z" data-paper-data="{&quot;origPos&quot;:null}" fill="#d1d1d1" stroke="none" stroke-width="1" stroke-linecap="butt" stroke-miterlimit="10"/><path d="M97.7176,195.70293v0c2.82346,0 5.11731,2.80813 5.11731,6.26679v18.16687c0,3.45865 -2.29385,6.26679 -5.11731,6.26679v0c-2.82346,0 -5.11731,-2.80813 -5.11731,-6.26679v-18.16687c0,-3.45865 2.29385,-6.26679 5.11731,-6.26679z" data-paper-data="{&quot;origPos&quot;:null}" fill="#0068ff" stroke="none" stroke-width="1" stroke-linecap="butt" stroke-miterlimit="10"/><path d="M86.4207,250.07682c0,-1.41296 1.14544,-2.55838 2.5584,-2.55838c1.41296,0 2.55838,1.14543 2.55838,2.55838c0,1.41296 -1.14543,2.5584 -2.55838,2.5584c-1.41296,0 -2.5584,-1.14544 -2.5584,-2.5584z" data-paper-data="{&quot;origPos&quot;:null}" fill="#000000" stroke="none" stroke-width="1" stroke-linecap="butt" stroke-miterlimit="10"/><path d="M100.49187,250.07682c0,-1.41296 1.14543,-2.55838 2.55838,-2.55838c1.41296,0 2.5584,1.14543 2.5584,2.55838c0,1.41296 -1.14544,2.5584 -2.5584,2.5584c-1.41296,0 -2.55838,-1.14544 -2.55838,-2.5584z" data-paper-data="{&quot;origPos&quot;:null}" fill="#000000" stroke="none" stroke-width="1" stroke-linecap="butt" stroke-miterlimit="10"/><g data-paper-data="{&quot;origRot&quot;:0,&quot;origPos&quot;:null}" stroke="none" stroke-width="0" stroke-linecap="butt" stroke-miterlimit="10"><path d="M443.44545,232.04393l-26.5346,-35.8019l9.23919,-6.84762l26.53459,35.8019z" data-paper-data="{&quot;origPos&quot;:null,&quot;origRot&quot;:0}" fill="#000000"/><path d="M417.39313,199.91048l-7.91759,-10.68283l12.12646,-8.98752l7.91758,10.68284z" data-paper-data="{&quot;origPos&quot;:null,&quot;origRot&quot;:0}" fill="#ff5e00"/></g><path d="M224.41001,158.174h0.156c1.947,0 3.528,1.58 3.528,3.527v9.771c0,1.947 -1.581,3.528 -3.528,3.528h-0.156c-1.947,0 -3.527,-1.581 -3.527,-3.528v-9.771c0,-1.947 1.58,-3.527 3.527,-3.527z" data-paper-data="{&quot;origPos&quot;:null}" fill="#0f0f0f" stroke="none" stroke-width="1" stroke-linecap="butt" stroke-miterlimit="10"/><path d="M249.97801,148.54501l2.529,9.438c0.504,1.88 -0.614,3.816 -2.494,4.32l-0.151,0.041c-1.88,0.504 -3.816,-0.614 -4.32,-2.495l-2.529,-9.438c-0.504,-1.88 0.614,-3.816 2.494,-4.32l0.151,-0.041c1.881,-0.503 3.817,0.614 4.32,2.495z" data-paper-data="{&quot;origPos&quot;:null}" fill="#0f0f0f" stroke="none" stroke-width="1" stroke-linecap="butt" stroke-miterlimit="10"/><path d="M239.65901,158.174h0.156c1.947,0 3.528,1.58 3.528,3.527v9.771c0,1.947 -1.581,3.528 -3.528,3.528h-0.156c-1.947,0 -3.528,-1.581 -3.528,-3.528v-9.771c0,-1.947 1.581,-3.527 3.528,-3.527z" data-paper-data="{&quot;origPos&quot;:null}" fill="#0f0f0f" stroke="none" stroke-width="1" stroke-linecap="butt" stroke-miterlimit="10"/><path d="M228.41701,116.05701v0c1.602,-0.429 3.329,0.815 3.855,2.777l2.761,10.304c0.526,1.962 -0.348,3.904 -1.95,4.333v0c-1.602,0.429 -3.329,-0.815 -3.855,-2.777l-2.761,-10.304c-0.526,-1.962 0.348,-3.904 1.95,-4.333z" data-paper-data="{&quot;origPos&quot;:null}" fill="#0f0f0f" stroke="none" stroke-width="1" stroke-linecap="butt" stroke-miterlimit="10"/><path d="M223.34701,118.95801v0c1.436,-0.829 3.427,-0.075 4.442,1.684l5.334,9.239c1.016,1.759 0.674,3.86 -0.762,4.689v0c-1.436,0.829 -3.427,0.075 -4.443,-1.684l-5.334,-9.239c-1.015,-1.759 -0.673,-3.86 0.763,-4.689z" data-paper-data="{&quot;origPos&quot;:null}" fill="#0f0f0f" stroke="none" stroke-width="1" stroke-linecap="butt" stroke-miterlimit="10"/><path d="M232.00501,116v0c1.658,0 3.005,1.649 3.005,3.68v10.668c0,2.031 -1.347,3.68 -3.005,3.68v0c-1.658,0 -3.005,-1.649 -3.005,-3.68v-10.668c0,-2.031 1.347,-3.68 3.005,-3.68z" data-paper-data="{&quot;origPos&quot;:null}" fill="#0f0f0f" stroke="none" stroke-width="1" stroke-linecap="butt" stroke-miterlimit="10"/><path d="M232.00001,130.53101v0c8.292,0 15.023,6.773 15.023,15.117v5.822c0,8.343 -6.731,15.117 -15.023,15.117v0c-8.292,0 -15.023,-6.774 -15.023,-15.117v-5.822c0,-8.344 6.731,-15.117 15.023,-15.117z" data-paper-data="{&quot;origPos&quot;:null}" fill="#0f0f0f" stroke="none" stroke-width="1" stroke-linecap="butt" stroke-miterlimit="10"/><path d="M218.34201,146.05l0.151,0.041c1.88,0.504 2.998,2.44 2.494,4.32l-2.529,9.438c-0.504,1.881 -2.44,2.999 -4.32,2.495l-0.151,-0.041c-1.88,-0.504 -2.998,-2.44 -2.494,-4.32l2.529,-9.438c0.503,-1.881 2.439,-2.998 4.32,-2.495z" data-paper-data="{&quot;origPos&quot;:null}" fill="#0f0f0f" stroke="none" stroke-width="1" stroke-linecap="butt" stroke-miterlimit="10"/><path d="M231.36601,144.052h11.268c1.036,0 1.878,0.841 1.878,1.878v0c0,1.036 -0.842,1.878 -1.878,1.878h-11.268c-1.036,0 -1.878,-0.842 -1.878,-1.878v0c0,-1.037 0.842,-1.878 1.878,-1.878z" data-paper-data="{&quot;origPos&quot;:null}" fill="#0f0f0f" stroke="none" stroke-width="1" stroke-linecap="butt" stroke-miterlimit="10"/><path d="M238.87801,145.93001v11.267c0,1.037 -0.842,1.878 -1.878,1.878v0c-1.036,0 -1.878,-0.841 -1.878,-1.878v-11.267c0,-1.037 0.842,-1.878 1.878,-1.878v0c1.036,0 1.878,0.841 1.878,1.878z" data-paper-data="{&quot;origPos&quot;:null}" fill="#0f0f0f" stroke="none" stroke-width="1" stroke-linecap="butt" stroke-miterlimit="10"/><path d="M231.36621,145.92959c0,-0.82972 0.67263,-1.50234 1.50235,-1.50234c0.82972,0 1.50234,0.67262 1.50234,1.50234c0,0.82972 -0.67262,1.50235 -1.50234,1.50235c-0.82972,0 -1.50235,-0.67263 -1.50235,-1.50235z" data-paper-data="{&quot;origPos&quot;:null}" fill="#0f0f0f" stroke="none" stroke-width="1" stroke-linecap="butt" stroke-miterlimit="10"/><path d="M239.62912,145.92959c0,-0.82972 0.67262,-1.50234 1.50234,-1.50234c0.82972,0 1.50235,0.67262 1.50235,1.50234c0,0.82972 -0.67263,1.50235 -1.50235,1.50235c-0.82972,0 -1.50234,-0.67263 -1.50234,-1.50235z" data-paper-data="{&quot;origPos&quot;:null}" fill="#0f0f0f" stroke="none" stroke-width="1" stroke-linecap="butt" stroke-miterlimit="10"/><path d="M221.10801,144.28101c0,-5.519 4.481,-10 10,-10" data-paper-data="{&quot;origPos&quot;:null}" fill="#0f0f0f" stroke="#ffffff" stroke-width="1" stroke-linecap="square" stroke-miterlimit="3"/><path d="M220.60791,144.78101c0,-0.27614 0.22386,-0.5 0.5,-0.5c0.27614,0 0.5,0.22386 0.5,0.5c0,0.27614 -0.22386,0.5 -0.5,0.5c-0.27614,0 -0.5,-0.22386 -0.5,-0.5z" data-paper-data="{&quot;origPos&quot;:null}" fill="#0f0f0f" stroke="none" stroke-width="1" stroke-linecap="butt" stroke-miterlimit="10"/><path d="M231.10791,134.28101c0,-0.27614 0.22386,-0.5 0.5,-0.5c0.27614,0 0.5,0.22386 0.5,0.5c0,0.27614 -0.22386,0.5 -0.5,0.5c-0.27614,0 -0.5,-0.22386 -0.5,-0.5z" data-paper-data="{&quot;origPos&quot;:null}" fill="#0f0f0f" stroke="none" stroke-width="1" stroke-linecap="butt" stroke-miterlimit="10"/><path d="M233.10791,134.28101c0,-0.27614 0.22386,-0.5 0.5,-0.5c0.27614,0 0.5,0.22386 0.5,0.5c0,0.27614 -0.22386,0.5 -0.5,0.5c-0.27614,0 -0.5,-0.22386 -0.5,-0.5z" data-paper-data="{&quot;origPos&quot;:null}" fill="#0f0f0f" stroke="none" stroke-width="1" stroke-linecap="butt" stroke-miterlimit="10"/><path d="M318.87939,233.74961l-8.41586,13.48506c-1.67697,2.68707 -5.21928,3.50816 -7.90635,1.83119l-0.2153,-0.13436c-2.68707,-1.67697 -3.5073,-5.22066 -1.83033,-7.90773l8.41586,-13.48506c1.67697,-2.68707 5.2198,-3.50592 7.90687,-1.82895l0.2153,0.13436c2.68707,1.67697 3.50678,5.21842 1.82981,7.90549z" data-paper-data="{&quot;origPos&quot;:null,&quot;index&quot;:null,&quot;origRot&quot;:0}" fill="#c37528" stroke="none" stroke-width="1" stroke-linecap="butt" stroke-miterlimit="10"/><path d="M288.55724,196.35258l0.21532,0.13575c2.68394,1.6801 3.50003,5.22433 1.81993,7.90827l-8.43262,13.47451c-1.68058,2.68549 -5.22481,3.50159 -7.90874,1.82149l-0.21532,-0.13575c-2.68394,-1.6801 -3.50003,-5.22433 -1.81993,-7.90827l8.43262,-13.47451c1.67902,-2.68597 5.22277,-3.50051 7.90874,-1.82149z" data-paper-data="{&quot;origPos&quot;:null,&quot;index&quot;:null,&quot;origRot&quot;:0}" fill="#c37528" stroke="none" stroke-width="1" stroke-linecap="butt" stroke-miterlimit="10"/><path d="M295.48037,227.41972l-9.72446,12.57412c-1.93773,2.50556 -5.54575,2.96665 -8.05131,1.02892l-0.20075,-0.15526c-2.50556,-1.93773 -2.96665,-5.54575 -1.02892,-8.05131l9.72446,-12.57412c1.93773,-2.50556 5.54476,-2.96536 8.05032,-1.02764l0.20075,0.15526c2.50556,1.93773 2.96764,5.54447 1.02992,8.05003z" data-paper-data="{&quot;origPos&quot;:null,&quot;index&quot;:null,&quot;origRot&quot;:0}" fill="#c37528" stroke="none" stroke-width="1" stroke-linecap="butt" stroke-miterlimit="10"/><path d="M330.63906,165.5886l-9.20629,14.71091c-1.75341,2.801 -5.03262,3.9127 -7.3199,2.48178v0c-2.28728,-1.43093 -2.721,-4.86817 -0.96759,-7.66917l9.20629,-14.71091c1.75341,-2.801 5.03262,-3.9127 7.3199,-2.48178v0c2.28728,1.43093 2.721,4.86817 0.96759,7.66917z" data-paper-data="{&quot;origPos&quot;:null,&quot;index&quot;:null,&quot;origRot&quot;:0}" fill="#ea0000" stroke="none" stroke-width="1" stroke-linecap="butt" stroke-miterlimit="10"/><path d="M335.12619,172.50557l-12.70071,11.82788c-2.4188,2.25167 -5.87506,2.47537 -7.71347,0.50141v0c-1.83841,-1.97396 -1.36885,-5.40493 1.04995,-7.6566l12.70071,-11.82788c2.41724,-2.25215 5.8735,-2.47585 7.71191,-0.50189v0c1.83841,1.97396 1.36885,5.40493 -1.0484,7.65707z" data-paper-data="{&quot;origPos&quot;:null,&quot;index&quot;:null,&quot;origRot&quot;:0}" fill="#ea0000" stroke="none" stroke-width="1" stroke-linecap="butt" stroke-miterlimit="10"/><path d="M327.03763,163.2768l-5.08529,16.59322c-0.96815,3.15906 -3.84935,5.08185 -6.42824,4.2915v0c-2.57889,-0.79035 -3.88798,-3.99733 -2.91983,-7.15639l5.08529,-16.59322c0.96815,-3.15906 3.84935,-5.08185 6.42824,-4.2915v0c2.57889,0.79035 3.88798,3.99733 2.91983,7.15639z" data-paper-data="{&quot;origPos&quot;:null,&quot;index&quot;:null,&quot;origRot&quot;:0}" fill="#ff0000" stroke="none" stroke-width="1" stroke-linecap="butt" stroke-miterlimit="10"/><path d="M333.35986,209.39914l-2.77527,9.05565c-3.97699,12.97687 -17.67559,20.3047 -30.57313,16.35202v0c-12.89754,-3.95268 -20.138,-17.69767 -16.161,-30.67453l2.77527,-9.05565c3.97747,-12.97842 17.67559,-20.3047 30.57313,-16.35202v0c12.89754,3.95268 20.13847,17.69611 16.161,30.67453z" data-paper-data="{&quot;origPos&quot;:null,&quot;index&quot;:null,&quot;origRot&quot;:0}" fill="#cd7f32" stroke="none" stroke-width="1" stroke-linecap="butt" stroke-miterlimit="10"/><path d="M336.57516,215.31379l-0.56531,15.88559c-0.11224,3.16444 -2.77406,5.6428 -5.9385,5.53056l-0.25441,-0.00821c-3.16444,-0.11224 -5.6428,-2.77406 -5.53008,-5.94006l0.56531,-15.88559c0.11224,-3.16444 2.77406,-5.6428 5.9385,-5.53056l0.25441,0.00821c3.16552,0.11427 5.64435,2.77454 5.53008,5.94006z" data-paper-data="{&quot;origPos&quot;:null,&quot;index&quot;:null,&quot;origRot&quot;:0}" fill="#d7893c" stroke="none" stroke-width="1" stroke-linecap="butt" stroke-miterlimit="10"/><path d="M313.76558,203.87395v0c-0.49385,1.61141 -2.20488,2.51971 -3.81629,2.02586l-17.52647,-5.3713c-1.61141,-0.49385 -2.51971,-2.20488 -2.02586,-3.81629v0c0.49432,-1.61297 2.20488,-2.51971 3.81629,-2.02586l17.52647,5.3713c1.61141,0.49385 2.52018,2.20332 2.02586,3.81629z" data-paper-data="{&quot;origPos&quot;:null,&quot;index&quot;:null,&quot;origRot&quot;:0}" fill="#fdd497" stroke="none" stroke-width="1" stroke-linecap="butt" stroke-miterlimit="10"/><path d="M302.97648,197.372v0c1.61141,0.49385 2.52018,2.20332 2.02586,3.81629l-5.37082,17.52491c-0.49432,1.61297 -2.20488,2.51971 -3.81629,2.02586v0c-1.61141,-0.49385 -2.52018,-2.20332 -2.02586,-3.81629l5.37082,-17.52491c0.49432,-1.61297 2.20488,-2.51971 3.81629,-2.02586z" data-paper-data="{&quot;origPos&quot;:null,&quot;index&quot;:null,&quot;origRot&quot;:0}" fill="#fdd497" stroke="none" stroke-width="1" stroke-linecap="butt" stroke-miterlimit="10"/><path d="M307.79146,204.59862c-1.29056,-0.39552 -2.01614,-1.76237 -1.62062,-3.05293c0.39552,-1.29056 1.76235,-2.01614 3.05291,-1.62062c1.29056,0.39552 2.01616,1.76236 1.62064,3.05292c-0.39552,1.29056 -1.76237,2.01615 -3.05293,1.62064z" data-paper-data="{&quot;origPos&quot;:null,&quot;index&quot;:null,&quot;origRot&quot;:0}" fill="#000000" stroke="none" stroke-width="1" stroke-linecap="butt" stroke-miterlimit="10"/><path d="M294.93917,200.65981c-1.29056,-0.39552 -2.01615,-1.76237 -1.62064,-3.05293c0.39552,-1.29056 1.76237,-2.01614 3.05293,-1.62062c1.29056,0.39552 2.01614,1.76235 1.62062,3.05291c-0.39552,1.29056 -1.76236,2.01616 -3.05292,1.62064z" data-paper-data="{&quot;origPos&quot;:null,&quot;index&quot;:null,&quot;origRot&quot;:0}" fill="#000000" stroke="none" stroke-width="1" stroke-linecap="butt" stroke-miterlimit="10"/><path d="M316.79872,184.98263c8.58436,2.63083 13.41817,11.7367 10.78734,20.32106" data-paper-data="{&quot;origPos&quot;:null,&quot;index&quot;:null,&quot;origRot&quot;:0}" fill="none" stroke="#ffffff" stroke-width="1" stroke-linecap="square" stroke-miterlimit="3"/><path d="M327.10952,206.85916c-0.42951,-0.13163 -0.671,-0.58654 -0.53937,-1.01605c0.13163,-0.42951 0.58654,-0.671 1.01605,-0.53937c0.42951,0.13163 0.671,0.58654 0.53937,1.01605c-0.13163,0.42951 -0.58654,0.671 -1.01605,0.53937z" data-paper-data="{&quot;origPos&quot;:null,&quot;index&quot;:null,&quot;origRot&quot;:0}" fill="#ffffff" stroke="none" stroke-width="1" stroke-linecap="butt" stroke-miterlimit="10"/><path d="M315.78282,185.52205c-0.42951,-0.13163 -0.671,-0.58654 -0.53937,-1.01605c0.13163,-0.42951 0.58654,-0.671 1.01605,-0.53937c0.42951,0.13163 0.671,0.58654 0.53937,1.01605c-0.13163,0.42951 -0.58654,0.671 -1.01605,0.53937z" data-paper-data="{&quot;origPos&quot;:null,&quot;index&quot;:null,&quot;origRot&quot;:0}" fill="#ffffff" stroke="none" stroke-width="1" stroke-linecap="butt" stroke-miterlimit="10"/><path d="M312.67197,184.56867c-0.42951,-0.13163 -0.671,-0.58654 -0.53937,-1.01605c0.13163,-0.42951 0.58654,-0.671 1.01605,-0.53937c0.42951,0.13163 0.671,0.58654 0.53937,1.01605c-0.13163,0.42951 -0.58654,0.671 -1.01605,0.53937z" data-paper-data="{&quot;origPos&quot;:null,&quot;index&quot;:null,&quot;origRot&quot;:0}" fill="#ffffff" stroke="none" stroke-width="1" stroke-linecap="butt" stroke-miterlimit="10"/></g></g></svg>